<?xml version="1.0" encoding="UTF-8"?>
<svg width="24px" height="24px" viewBox="0 0 24 24" version="1.1" xmlns="http://www.w3.org/2000/svg" xmlns:xlink="http://www.w3.org/1999/xlink">
    <title>24x24/On Dark/Download</title>
    <g id="Icons" stroke="none" stroke-width="1" fill="none" fill-rule="evenodd">
        <g id="Icon-set" transform="translate(-744.000000, -288.000000)">
            <g id="24x24/On-Dark/Download" transform="translate(744.000000, 288.000000)">
                <rect id="view-box" x="0" y="0" width="24" height="24"></rect>
                <path d="M12,3.25 C12.4142136,3.25 12.75,3.58578644 12.75,4 L12.75,4 L12.75,13.189 L15.4696699,10.4696699 C15.7359365,10.2034034 16.1526002,10.1791973 16.4462117,10.3970518 L16.5303301,10.4696699 C16.8232233,10.7625631 16.8232233,11.2374369 16.5303301,11.5303301 L16.5303301,11.5303301 L12.5303301,15.5303301 C12.2374369,15.8232233 11.7625631,15.8232233 11.4696699,15.5303301 L11.4696699,15.5303301 L7.46966991,11.5303301 C7.1767767,11.2374369 7.1767767,10.7625631 7.46966991,10.4696699 C7.76256313,10.1767767 8.23743687,10.1767767 8.53033009,10.4696699 L8.53033009,10.4696699 L11.25,13.189 L11.25,4 C11.25,3.62030423 11.5321539,3.30650904 11.8982294,3.25684662 Z" id="Shape" fill="#FF6359" fill-rule="nonzero"></path>
                <path d="M19.25,8 L19.25,17.8 C19.25,18.6159196 18.6735632,19.25 18,19.25 L6,19.25 C5.32643675,19.25 4.75,18.6159196 4.75,17.8 L4.75,8 C4.75,7.58578644 4.41421356,7.25 4,7.25 C3.58578644,7.25 3.25,7.58578644 3.25,8 L3.25,17.8 C3.25,19.4141333 4.46442425,20.75 6,20.75 L18,20.75 C19.5355757,20.75 20.75,19.4141333 20.75,17.8 L20.75,8 C20.75,7.58578644 20.4142136,7.25 20,7.25 C19.5857864,7.25 19.25,7.58578644 19.25,8 Z" id="Shape" fill="#FFFFFF" fill-rule="nonzero"></path>
            </g>
        </g>
    </g>
</svg>