<?xml version="1.0" encoding="UTF-8"?>
<svg width="4691px" height="3001px" viewBox="0 0 4691 3001" version="1.1" xmlns="http://www.w3.org/2000/svg" xmlns:xlink="http://www.w3.org/1999/xlink">
    <title>Group 77</title>
    <defs>
        <polygon id="path-1" points="0 0 4689.94 0 4689.94 3000.031 0 3000.031"></polygon>
    </defs>
    <g id="Page-1" stroke="none" stroke-width="1" fill="none" fill-rule="evenodd">
        <g id="Group-77" transform="translate(0.060000, 0.910000)">
            <mask id="mask-2" fill="white">
                <use xlink:href="#path-1"></use>
            </mask>
            <g id="Clip-2"></g>
            <polygon id="Fill-1" fill="#FFFFFE" mask="url(#mask-2)" points="5.45674617e-14 3000.03 4689.94 3000.03 4689.94 0.046 5.45674617e-14 0.046"></polygon>
            <path d="M542.809,1915.25 C633.397,1978.47 715.467,2070.17 828.381,2089.69 C915.469,2104.75 1044.89,2095.4 1125.31,2055.13 C1223.29,2006.04 1297.56,1906.47 1326.99,1802.06 C1369.49,1651.29 1404.11,1470.13 1605.37,1493.47 C1749.03,1510.13 1886.79,1620.87 2031.36,1642.1 C2112.53,1654.02 2171.87,1643.75 2251.56,1636.4 C2457.16,1617.45 2552.99,1691.61 2687.86,1828.4 C2815.3,1957.69 2911.06,2023.47 3103.14,1992.66 C3170.43,1981.86 3211.35,1965.46 3274.17,1945.79 C3455.5,1889.02 3576.97,1972.79 3740.97,2017.94 C3938.41,2072.25 4045.73,1983.3 4163.87,1831.79 C4322.96,1627.79 4475.02,1569.56 4689.919,1637.79 L4689.919,1625.69 C4472.08,1557.69 4316.009,1617.81 4154.75,1824.69 C4033.78,1979.86 3930.45,2062.03 3731.28,2003.15 C3569.49,1955.32 3449.19,1878.89 3270.73,1934.76 C3218.09,1951.24 3179.85,1966.18 3124.31,1977.13 C2762.71,2048.39 2731.01,1762.47 2485.91,1656.65 C2382.98,1612.21 2300.65,1620.66 2214.78,1629.11 C2162.63,1634.23 2109.18,1639.36 2049.02,1632.65 C1890.62,1615.04 1743.31,1489.13 1589.12,1480.46 C1392.77,1469.46 1357.77,1650.3 1315.85,1799.04 C1287.33,1900.24 1215.17,1997.2 1120.15,2044.79 C1039.89,2085 903.492,2094.5 817.023,2075.69 C718.206,2054.21 631.858,1963.26 549.588,1905.85 C413.471,1810.85 198.142,1785.28 0.04,1782.61 L0.04,1794.19 C195.943,1796.85 409.191,1822.04 542.809,1915.25" id="Fill-3" fill="#C4C5C1" mask="url(#mask-2)"></path>
            <path d="M637.896,2098.68 C792.579,2213.68 827.38,2231.87 1020.16,2180.06 C1182.87,2136.33 1350.34,2024.87 1431.66,1874.54 C1466.93,1809.36 1509.47,1683.75 1570.48,1645.78 C1665.46,1586.7 1808.04,1688.62 1893.4,1734.6 C1947.39,1763.69 2036.93,1812.34 2097.9,1805.19 C2195.78,1793.71 2282.86,1738.11 2389.93,1761.31 C2605.96,1808.1 2685.58,2111.91 2951.74,2128.65 C3061.9,2135.57 3216.67,2085.83 3318.81,2046.2 C3384.64,2020.67 3410.21,2027.82 3475.71,2046.12 C3716.47,2113.39 3937.6,2234.04 4160.46,2032.86 C4333.879,1876.27 4397.24,1652.33 4689.49,1751.86 L4689.9,1752 L4689.9,1739.78 C4686.87,1738.78 4683.8,1737.78 4680.69,1736.78 C4399.93,1648.15 4329.5,1855.11 4166.25,2011.65 C3943.31,2225.49 3725.12,2103.79 3478.83,2034.99 C3410.85,2015.99 3383.15,2008.85 3314.61,2035.43 C3214.29,2074.33 3060.61,2123.9 2952.47,2117.1 C2669.48,2099.31 2593.65,1734.72 2327.27,1744.54 C2244.86,1747.54 2171.53,1784.96 2096.02,1793.78 C2039.58,1800.36 1949.28,1751.56 1898.88,1724.42 C1808.57,1675.77 1665.43,1573.12 1564.35,1635.99 C1499.63,1676.25 1458.52,1800.64 1421.52,1868.99 C1341.74,2016.48 1176.81,2125.99 1017.21,2168.83 C828.26,2219.62 796.557,2202.17 644.874,2089.4 C474.185,1962.5 228.974,1916.47 0.029,1903.97 L0.029,1915.58 C226.535,1928.1 469.687,1973.63 637.896,2098.68" id="Fill-4" fill="#C4C5C1" mask="url(#mask-2)"></path>
            <path d="M574.921,1992.04 C757.318,2120.04 831.149,2203.51 1067.31,2120.37 C1259.65,2052.66 1341.07,1969.85 1403.23,1775 C1448.73,1632.33 1517.67,1507.56 1691.56,1567.55 C1739.03,1583.92 1798.96,1619.09 1846.94,1641.64 C1942.71,1686.64 2060.29,1740.4 2167.42,1711.94 C2238.99,1692.94 2258.97,1677.76 2339.95,1690.4 C2490.22,1713.86 2576.36,1785.94 2675.39,1892.83 C2783.14,2009.15 2857.23,2067.71 3020.04,2058.22 C3110.48,2052.96 3193.05,2028.53 3278.27,2000.88 C3405.14,1959.72 3518.59,1998.55 3630.11,2037.38 C3810.88,2100.31 3986.58,2163.25 4206.14,1885.55 C4319.52,1742.12 4436.15,1621.39 4635.98,1677.48 C4654.27,1682.61 4672.21,1688.62 4689.9,1695.3 L4689.9,1682.96 C4673.24,1676.78 4656.35,1671.18 4639.12,1666.35 C4433.85,1608.73 4313.5,1731.09 4197,1878.46 C3981.54,2150.99 3810.56,2088.36 3631.62,2025.73 C3519.95,1986.64 3405.17,1947.55 3274.55,1989.93 C3190.42,2017.22 3108.59,2041.48 3019.36,2046.68 C2860.22,2055.95 2789.19,1998.68 2683.87,1884.98 C2583,1776.09 2494.75,1702.86 2341.73,1678.98 C2258.61,1665.98 2237.75,1681.29 2164.33,1700.8 C2060.64,1728.37 1944.54,1674.72 1851.85,1631.18 C1798.57,1606.18 1732.19,1566.5 1677.97,1551.18 C1505.74,1502.48 1436.54,1632.52 1392.18,1771.6 C1332.14,1959.9 1260.16,2036.19 1075.13,2105.24 C837.559,2193.91 765.796,2111.95 581.72,1982.71 C445.462,1887.04 209.45,1855.35 -0.01,1847.04 L-0.01,1858.63 C207.3,1866.9 441.173,1898.15 574.921,1992.04" id="Fill-5" fill="#C4C5C1" mask="url(#mask-2)"></path>
            <path d="M326.261,1760.74 C453.48,1780.85 488.573,1807.39 587.088,1888.37 C730.054,2005.89 777.042,2061.01 979.654,2039.01 C1119,2023.88 1188.96,1976.01 1244.4,1839.08 C1298.49,1705.43 1297.22,1492.08 1475.27,1451.72 C1593.56,1424.88 1733.73,1476.36 1839.82,1526.83 C1996.53,1601.38 2059.76,1598.83 2230.72,1581.75 C2529.91,1551.75 2585.64,1637.46 2788.07,1828.47 C2905.5,1939.23 3002.29,1971.24 3162.11,1923.66 C3329.07,1873.97 3394.87,1836.31 3567.33,1895.48 C3667.31,1929.77 3803.27,1992.03 3908.05,1958.19 C4024.78,1920.47 4101.74,1787.88 4188.76,1704.8 C4363.14,1538.32 4520.839,1535.93 4689.919,1590.4 L4689.919,1577.93 C4510.68,1521.93 4347.08,1530.84 4168.46,1708.43 C4088.77,1787.66 4014.4,1911.67 3904.53,1947.18 C3803.68,1979.77 3667.51,1917.61 3571.12,1884.54 C3435.32,1837.95 3360.75,1847.64 3222.52,1892.25 C3066.37,1942.64 2972.9,1965.25 2835.89,1855.12 C2738.77,1777.12 2656.13,1664.95 2541.66,1607.18 C2432.86,1552.27 2328.62,1561.98 2221.99,1571.68 C2122.61,1580.73 2021.15,1589.77 1911.99,1546.52 C1822.06,1510.94 1769.14,1473.67 1668.1,1450.04 C1421.93,1392.42 1326.45,1481.04 1269.43,1712.58 C1233.44,1858.58 1189.38,1995.17 1019.49,2022.18 C900.523,2041.09 800.797,2039.96 700.74,1966.84 C626.319,1912.47 565.493,1848.84 484.284,1797.43 C434.515,1765.92 360.703,1753.6 303.077,1745.67 C217.538,1733.88 108.124,1724.41 -0.01,1720.46 L-0.01,1732.15 C117.932,1736.29 238.633,1746.89 326.261,1760.74" id="Fill-6" fill="#C4C5C1" mask="url(#mask-2)"></path>
            <path d="M145.135,1521.32 C246.111,1547.96 338.088,1567.26 438.755,1601.21 C531.622,1632.54 595.476,1659.38 674.147,1718.31 C803.806,1815.42 899.283,1845.53 997.32,1685.47 C1052.31,1595.8 1110.12,1409.21 1181.28,1351.16 C1257.55,1288.96 1433.88,1299.66 1531.19,1302.76 C1688.88,1307.76 1744.54,1328.56 1889.88,1378.46 C2025.91,1425.17 2130.17,1397.17 2261.14,1353.03 C2373.64,1315.12 2468.09,1282.71 2589.06,1320.91 C2758.95,1374.57 2837,1531.18 2959.06,1639.8 C3085.29,1752.17 3180.65,1714.55 3302.97,1619.49 C3339.7,1591.04 3406.49,1529.21 3450.67,1525.24 C3506.03,1520.24 3611.26,1586.68 3674.17,1605.4 C3839.82,1654.69 3966.85,1573.35 4095.01,1492 C4206.53,1421.22 4318.9,1350.44 4458.32,1365.73 C4537.3,1374.39 4613.759,1385.89 4689.89,1401.38 L4689.89,1389.58 C4614.21,1374.26 4538.16,1362.86 4459.69,1354.25 C4317.22,1338.63 4203.44,1409.52 4091.76,1480.41 C3964.13,1561.43 3839.25,1642.46 3677.47,1594.32 C3606.2,1573.11 3499.9,1498.93 3433.53,1516.59 C3390.99,1527.92 3304.98,1604.53 3265.02,1634.02 C3075.51,1773.91 2982.24,1656.54 2856.68,1513.37 C2706.17,1341.75 2573.02,1243.53 2332.92,1316.56 C2191.04,1359.71 2062.98,1423.73 1909.46,1372.92 C1764.15,1324.83 1709.09,1298.04 1547.97,1291.78 C1448.57,1287.91 1266.45,1278.09 1185.53,1333.56 C1100.84,1391.56 1045.88,1584.1 987.462,1679.43 C893.285,1833.19 805.116,1801.96 681.086,1709.04 C601.365,1649.32 536.511,1621.96 442.444,1590.23 C341.468,1556.23 249.359,1536.83 148.094,1510.12 C100.306,1497.51 50.637,1478.12 -0.01,1457.87 L-0.01,1470.16 C50.008,1490.15 98.816,1509.1 145.135,1521.32" id="Fill-7" fill="#C4C5C1" mask="url(#mask-2)"></path>
            <path d="M221.797,1591.54 C391.185,1626.44 504.449,1646.21 638.696,1765.62 C701.481,1821.48 747.75,1853.04 831.39,1869.2 C954.73,1893.04 1042.54,1812.2 1082.68,1702.62 C1140.79,1543.95 1126.67,1378.04 1341.26,1345.76 C1503,1321.43 1671.18,1327.76 1822.62,1393.95 C2046.33,1491.66 2215.71,1403.44 2436.7,1387.82 C2660.38,1372 2719.47,1471.46 2857.81,1622.16 C2979.66,1754.9 3066.47,1825.92 3243.9,1717.38 C3341.87,1657.46 3423.56,1580.17 3543.57,1634.76 C3645.11,1680.95 3765.98,1752.76 3877.83,1699.76 C3933.64,1673.33 4013.61,1607.92 4068.62,1571.43 C4258.25,1445.6 4413.54,1378.69 4646.65,1433.25 C4661.16,1436.65 4675.58,1440.32 4689.9,1444.25 L4689.9,1432.56 C4454.81,1370.56 4314.53,1402.83 4098.46,1538.41 C4033.53,1579.16 3975.49,1626.09 3912.77,1666.57 C3811.7,1731.85 3742.02,1710.1 3634.95,1664.37 C3601.63,1650.04 3557.34,1626.04 3526.29,1614.9 C3432.21,1581.3 3355.43,1631.35 3278.8,1681.39 C3182.65,1744.2 3086.75,1807 2957.26,1704.52 C2854.17,1622.95 2761.16,1466.39 2644.74,1407.98 C2487.37,1328.98 2259.53,1414.43 2087.61,1425.51 C1976.78,1432.65 1914.8,1420.18 1813.18,1377.21 C1669.06,1316.21 1477.51,1308.69 1324.77,1336.73 C1118.01,1374.73 1128.13,1544.84 1071.83,1698.66 C1033.72,1802.72 951.231,1880.59 833.649,1857.86 C752.128,1842.1 707.679,1811.52 646.514,1757.08 C510.327,1635.92 395.914,1615.6 224.106,1580.21 C151.203,1565.21 76.041,1539.88 0.03,1517.01 L0.03,1529.01 C75.651,1551.76 150.334,1576.82 221.797,1591.54" id="Fill-8" fill="#C4C5C1" mask="url(#mask-2)"></path>
            <path d="M696.482,2204.04 C862.562,2316.38 928.936,2264.29 1094.39,2192.15 C1228.09,2133.85 1395.84,2037.28 1479.75,1915.39 C1517.37,1860.73 1585.12,1740.76 1648.26,1718.04 C1751.52,1680.87 1912.86,1836.18 1999.18,1887.45 C2056.07,1921.23 2076.74,1893.09 2130.56,1865.08 C2336.13,1758.08 2435.09,1799.79 2581.2,1959.79 C2734.16,2127.3 2830.94,2240.27 3081.43,2197.86 C3171.81,2182.56 3203.27,2165.38 3279.78,2122.98 C3360.61,2078.18 3419.33,2087.14 3506.73,2109.2 C3661.15,2148.15 3780.44,2213.72 3950.96,2192.7 C4117.92,2172.13 4216.69,2071.16 4323.03,1954.83 C4415.31,1853.83 4527.21,1756.33 4672.78,1807.43 C4678.46,1809.43 4684.12,1811.58 4689.78,1813.87 L4689.78,1801.42 C4685.4,1799.71 4681.01,1798.08 4676.61,1796.53 C4525.77,1743.59 4410.23,1842.27 4314.48,1947.03 C4210.24,2061.03 4113.23,2161.03 3949.57,2181.23 C3781.92,2201.89 3661.9,2136.41 3509.57,2097.98 C3419.08,2075.15 3357.86,2066.48 3274.06,2112.91 C3198.81,2154.62 3168.49,2171.39 3079.54,2186.45 C2825.4,2229.45 2734.34,2108.45 2580,1941.4 C2433.32,1782.64 2326.26,1750.12 2125.17,1854.83 C2074.44,1881.25 2056.41,1908.01 2005.12,1877.54 C1913.96,1823.39 1754.71,1667.43 1644.2,1707.17 C1576.97,1731.37 1510.14,1850.9 1470.15,1908.89 C1387.69,2028.68 1221.21,2124.22 1089.78,2181.51 C928.046,2252.03 864.741,2303.9 703.01,2194.51 C483.334,2045.92 250.71,1977.51 -0.049,1959.51 L-0.049,1971.11 C248.36,1988.98 478.844,2056.81 696.482,2204.04" id="Fill-9" fill="#C4C5C1" mask="url(#mask-2)"></path>
            <path d="M312.425,1707.15 C482.683,1730.65 547.728,1804.84 675.697,1908.72 C803.506,2012.47 907.442,2046.07 1056.4,1964.81 C1202.76,1884.98 1211.76,1779.97 1242.05,1630.38 C1270.79,1488.46 1326.53,1429.23 1471.68,1411.58 C1590.83,1397.09 1682.29,1410.43 1790.85,1458.95 C1917.03,1515.35 1981.58,1535.03 2123.35,1531.95 C2279.5,1528.54 2389.07,1491.36 2548.61,1550.72 C2695.49,1605.37 2749.45,1698.64 2856.18,1795.6 C2988.84,1916.09 3110.89,1896.85 3268.22,1830.9 C3396.36,1777.18 3482.55,1768.61 3609.04,1834.9 C3711.13,1888.41 3773.67,1925.14 3893.08,1878.9 C3995.36,1839.29 4099.62,1696.4 4193.43,1620.9 C4361.39,1485.72 4522.95,1489.3 4689.9,1538.09 L4689.9,1526.28 C4516.16,1476 4350.04,1474.62 4175.32,1620.81 C4088.339,1693.59 3985.56,1830.69 3888.98,1868.1 C3773.22,1912.94 3713.39,1876.56 3614.43,1824.68 C3484.68,1756.68 3395.04,1765.19 3263.61,1820.28 C3091.66,1892.38 2979.97,1901.28 2843.6,1767.74 C2735.34,1661.74 2671.89,1572.05 2514.99,1527.56 C2369.89,1486.42 2278.83,1514.87 2138.83,1519.92 C1992.45,1525.21 1926.61,1506.92 1795.59,1448.4 C1685.09,1399.01 1591.5,1385.4 1470.3,1400.1 C1320.16,1418.36 1260.48,1481.17 1230.71,1628.1 C1201.18,1773.92 1193.47,1876.87 1050.86,1954.66 C894.985,2039.66 794.169,1993.13 665.32,1885.14 C545.029,1784.34 474.127,1717.79 313.905,1695.68 C214.709,1681.99 107.274,1664.34 -0.02,1653.83 L-0.02,1665.44 C106.894,1675.96 213.998,1693.57 312.425,1707.15" id="Fill-10" fill="#C4C5C1" mask="url(#mask-2)"></path>
            <path d="M308.846,1658.04 C449.642,1683.9 524.793,1719.49 630.138,1817.45 C733.843,1913.9 790.66,1936.81 935.275,1932.8 C998.959,1931.03 1069.06,1875.89 1101.72,1824.8 C1203.01,1666.33 1129.63,1423.36 1378.75,1381.42 C1536.71,1354.82 1643.11,1363.09 1793.5,1421.51 C1958.96,1485.79 2034.56,1497.51 2208.21,1476.91 C2486.86,1443.91 2593.69,1430.41 2798.7,1644.5 C2896.45,1746.6 3003.46,1862.5 3160.81,1815.18 C3298.87,1773.7 3386.95,1649.29 3548.22,1726.24 C3650.63,1775.11 3766.1,1846.58 3878.14,1790.9 C3958.12,1751.17 4054.39,1651.79 4131.46,1594.29 C4336.879,1441.04 4499.38,1438.46 4689.83,1492.55 L4689.83,1480.62 C4497.1,1426.48 4332.29,1430.04 4124.549,1585.03 C4048.92,1641.45 3939.53,1752.7 3860.61,1786.29 C3759.75,1829.2 3643.82,1759.04 3553.33,1715.87 C3367.74,1627.32 3271.05,1793.87 3116.67,1812.94 C2979.75,1829.88 2882.85,1714.07 2798.18,1627.32 C2593.86,1417.97 2481.19,1432.98 2206.85,1465.43 C2035.06,1485.74 1961.39,1474.33 1797.7,1410.74 C1645.38,1351.56 1536.86,1343.07 1376.9,1370 C1118.52,1413.5 1192.64,1661.07 1091.97,1818.58 C1061.54,1866.18 994.66,1919.58 935.125,1921.23 C793.379,1925.11 739.611,1903.48 638.006,1809 C531.031,1709.47 453.861,1672.93 310.844,1646.66 C213.349,1628.75 106.894,1601.66 -0.02,1582.46 L-0.02,1594.22 C106.475,1613.38 212.629,1640.37 308.846,1658.04" id="Fill-11" fill="#C4C5C1" mask="url(#mask-2)"></path>
            <path d="M391.906,2599.43 C463.768,2729.43 556.476,2840.64 716.587,2846.22 C860.972,2851.22 969.686,2692.77 1062.73,2598.78 C1143.88,2516.78 1234.37,2458.91 1342.34,2418.7 C1556.94,2338.77 1717.93,2412.86 1930.38,2422.12 C2055.05,2427.55 2082.12,2384.26 2150.61,2287.49 C2295.58,2082.62 2384.25,2126.08 2552.51,2271.92 C2623.98,2333.92 2682.48,2382.14 2759.47,2436.85 C2888.9,2528.85 2919.22,2560.25 2980.32,2704.85 C3051.51,2873.34 3168.11,2867 3308.24,2779.85 C3401.16,2722.06 3442.45,2650.4 3518.77,2585.37 C3580.29,2532.96 3622.63,2525.8 3700.92,2531.59 C3918.45,2547.69 4037.51,2505.42 4240.79,2462.59 C4398.919,2429.25 4510.19,2427.09 4670.68,2451.67 C4677.15,2452.67 4683.54,2453.49 4689.89,2454.23 L4689.89,2442.58 C4684.17,2441.91 4678.42,2441.16 4672.6,2440.27 C4510.64,2415.46 4398.04,2417.62 4238.419,2451.27 C4036.47,2493.85 3917.78,2536.08 3701.78,2520.09 C3620.37,2514.09 3575.12,2522.2 3511.26,2576.61 C3428.88,2646.8 3390.29,2720.06 3286.87,2779.11 C3153.17,2855.44 3055.47,2853.11 2990.94,2700.54 C2928.95,2553.86 2897.41,2520.83 2766.07,2427.48 C2689.39,2372.99 2631.2,2324.97 2560.01,2263.25 C2386.78,2113.07 2290.65,2069.62 2141.11,2280.87 C2074.87,2374.46 2050.78,2415.87 1930.89,2410.62 C1703.47,2400.71 1547.53,2321.77 1317.04,2416.2 C1204.45,2462.34 1125.09,2517.2 1040.2,2605.29 C955.31,2693.38 850.945,2839.34 717.127,2834.67 C561.505,2829.24 471.806,2720.04 402.053,2593.89 C294.649,2399.66 178.187,2297.23 -0.01,2274.45 L-0.01,2286.1 C173.628,2308.81 286.671,2409.11 391.906,2599.43" id="Fill-12" fill="#C4C5C1" mask="url(#mask-2)"></path>
            <path d="M442.493,2562.68 C538.68,2708.04 591.138,2722.5 757.747,2750.62 C878.068,2770.92 957.939,2643.18 1024.92,2563.83 C1096.24,2479.39 1159.94,2433.72 1257.2,2382.4 C1470.71,2269.69 1624.53,2322.67 1845.64,2358.97 C1935.88,2373.79 2038.36,2391.8 2100.02,2307.89 C2147.71,2242.98 2149.45,2182.89 2229.77,2130.58 C2305.2,2081.48 2354.54,2092.58 2427.11,2135.52 C2539.26,2201.9 2631.92,2308.79 2741.3,2384.22 C2896.26,2491.09 2938.68,2495.57 3048.59,2661.32 C3220.87,2921.18 3392.29,2613.75 3520.34,2500.24 C3567.57,2458.37 3599.49,2462.13 3660.58,2469.17 C3854.78,2491.55 3887.56,2504.04 4086.4,2447.65 C4287.83,2390.54 4478.64,2321.46 4689.88,2355.58 L4689.88,2343.86 C4523.5,2317.32 4375.74,2352.74 4214.74,2398.51 C4081.58,2436.37 3966.8,2481.66 3826.5,2475.67 C3761.06,2472.87 3629.54,2447.67 3579.13,2455.89 C3521.46,2465.25 3465.15,2539.44 3428.16,2581.03 C3317.57,2705.04 3187.73,2850.35 3058.27,2655.04 C2952.61,2495.67 2913.15,2486.67 2760.88,2383.6 C2652.4,2310.16 2568.63,2216.12 2462.54,2144.38 C2372.95,2083.79 2302.98,2058.62 2207.82,2131.96 C2137.83,2185.96 2134.84,2240.89 2090.62,2301.12 C2042.03,2367.28 1966.82,2364.79 1892.11,2354.54 C1642.93,2320.37 1482.81,2245.54 1239.8,2378.6 C1135.68,2435.6 1081.35,2477.6 1005.31,2569.26 C944.832,2642.15 869.19,2757.7 759.947,2739.26 C596.416,2711.66 546.518,2698.9 452.171,2556.34 C318.013,2353.64 198.922,2247.81 -0.01,2227.2 L-0.01,2238.82 C194.643,2259.41 310.615,2363.4 442.493,2562.68" id="Fill-13" fill="#C4C5C1" mask="url(#mask-2)"></path>
            <path d="M473.545,2494.42 C515.006,2545.75 572.402,2619.25 641.815,2629.59 C694.193,2637.4 710.179,2627.21 768.355,2651.12 C810.555,2668.46 826.781,2685.28 874.729,2656.51 C947.812,2612.65 1024.85,2474.89 1115.55,2410.9 C1310.67,2273.24 1470.72,2185.24 1713.15,2264.71 C1805.47,2294.97 1970.02,2365.49 2054.38,2290.76 C2144.97,2210.51 2118.7,2114.3 2271.33,2054.03 C2390.3,2007.03 2546.27,2181.72 2626.68,2254.59 C2761.2,2376.5 2917.61,2431.37 3055.63,2549.59 C3134.06,2616.79 3206.16,2713.17 3317.22,2633.32 C3398.57,2574.82 3490.07,2415.82 3583.64,2397.04 C3639.62,2385.79 3740.97,2423.93 3806.13,2433.11 C3942.72,2452.33 4081.07,2403.29 4210.71,2362.54 C4325.74,2326.35 4456.85,2279.04 4571.9,2252.04 C4595.47,2246.5 4609.78,2244.04 4633.96,2242.47 C4658.53,2244.68 4671.4,2247.05 4689.88,2251.47 L4689.88,2238.78 C4652.629,2230.05 4623.56,2228.05 4569.25,2240.78 C4453.86,2267.89 4322.59,2315.21 4207.22,2351.47 C4079.73,2391.54 3941.94,2440.47 3807.73,2421.61 C3739.75,2412.05 3641.31,2373.61 3581.37,2385.61 C3486.84,2404.61 3397.9,2553.61 3321.51,2615.39 C3211.54,2704.33 3144.44,2610.45 3063.11,2540.77 C2924.94,2422.4 2768.18,2367.23 2634.4,2245.96 C2549.09,2168.64 2393.37,1993.33 2266.85,2043.29 C2109.67,2105.37 2135.97,2202.99 2046.44,2282.29 C1975.67,2345.04 1837.19,2294.64 1758.08,2267.77 C1617.19,2219.9 1510.76,2200.88 1366.97,2254.09 C1284.52,2284.62 1127.23,2378.38 1064.29,2438.36 C1004.88,2495.04 943.913,2588.29 886.586,2633.91 C827.79,2680.69 814.604,2655.16 760.037,2635.52 C707.469,2616.6 690.003,2625.08 643.435,2618.15 C578.121,2608.42 521.534,2535.43 482.584,2487.21 C328.79,2296.83 202.911,2200.42 -0.01,2182.21 L-0.01,2193.83 C199.072,2212.04 322.083,2306.92 473.545,2494.42" id="Fill-14" fill="#C4C5C1" mask="url(#mask-2)"></path>
            <path d="M746.84,2294.62 C865.571,2356.21 893.665,2347.71 1009.78,2286.29 C1081.98,2248.11 1142.48,2212.21 1211.59,2169.39 C1372.07,2069.96 1444.01,2050.1 1575.12,1895.81 C1637.84,1821.98 1691.83,1780.75 1786.57,1840.37 C1892.29,1906.91 1973.07,2043.63 2113.42,1955.57 C2273.31,1855.26 2355.09,1788.4 2513.85,1948.49 C2629.3,2064.9 2724.8,2187.71 2884.92,2249.4 C3010.09,2297.64 3171.14,2287.29 3279.83,2204.52 C3342.64,2156.71 3362.45,2143.93 3442.49,2152.38 C3539.47,2162.6 3642.56,2200.25 3742.01,2217.52 C3959.64,2255.33 4139.23,2234.93 4302.87,2071.76 C4435.29,1939.76 4491.83,1824.76 4689.78,1889.76 L4689.78,1877.5 C4486.41,1812.35 4423.27,1935.41 4294.69,2063.61 C4133.81,2224 3957.77,2243.32 3743.94,2206.17 C3648.96,2189.67 3558.13,2157.26 3464.95,2143.63 C3391.51,2132.89 3351.73,2134.9 3291.33,2180.93 C3246.59,2215.01 3222.73,2233.32 3166.45,2249.13 C2967.08,2305.13 2807.59,2222.6 2664.96,2087.86 C2609.61,2035.57 2560.68,1976.54 2507,1925.77 C2349.4,1776.61 2258.88,1850.62 2106.92,1945.97 C1968.68,2032.71 1888.04,1882.69 1779.18,1822.66 C1683.86,1770.09 1626.5,1817.36 1566.14,1888.39 C1436.17,2041.39 1364.55,2060.97 1205.38,2159.61 C1136.65,2202.25 1076.38,2238.04 1004.41,2276.04 C891.575,2335.73 867.19,2344.04 752.168,2284.36 C478.815,2142.57 275.874,2032.91 -0.01,2008.5 L-0.01,2020.13 C273.794,2044.62 475.385,2153.84 746.84,2294.62" id="Fill-15" fill="#C4C5C1" mask="url(#mask-2)"></path>
            <path d="M345.007,2653.83 C506.248,2988.04 751.049,2989.54 996.79,2743.5 C1197.74,2542.3 1364.9,2415.65 1663.04,2438.5 C1749.1,2445.11 1841.15,2457.03 1926.31,2460.5 C2017.13,2464.24 2083.37,2450.13 2139.25,2371.1 C2178.85,2315.1 2227.56,2212.25 2301.61,2199.83 C2425.3,2179.09 2610.08,2360.09 2701.51,2436.04 C2772.23,2494.76 2878.54,2584.52 2894.46,2678.42 C2904.09,2735.06 2896.4,2762.67 2936.34,2814.31 C3059.13,2973.09 3243.56,2900.25 3375.96,2800.16 C3436.27,2754.56 3472.47,2713.34 3526.2,2664.03 C3576.04,2618.29 3617.18,2585.71 3688.16,2595.16 C3763.89,2605.23 3788.93,2615.69 3869.99,2605.85 C3956.89,2595.3 4071.01,2557.04 4158.169,2534.09 C4381.27,2475.37 4462.16,2497.16 4683.44,2535.28 C4685.59,2535.65 4687.719,2535.98 4689.85,2536.28 L4689.85,2524.57 L4685.549,2523.88 C4479.24,2488.33 4385.79,2464.1 4176.56,2517.34 C4061.65,2546.59 3908.44,2602.34 3792.88,2597.63 C3749.12,2595.83 3707.51,2583.14 3668.66,2581.55 C3591.56,2578.37 3532.25,2640.66 3482,2690.84 C3354.03,2818.64 3119.09,3001.04 2956.13,2819.84 C2907.97,2766.29 2916.63,2739.23 2905.95,2676.59 C2889.27,2578.7 2782.52,2488.23 2708.92,2427.11 C2613.76,2348.11 2441.98,2179.96 2314.66,2186.78 C2223.46,2191.66 2175.89,2299.13 2129.71,2364.45 C2076.35,2439.99 2013.51,2452.45 1926.76,2448.92 C1841.78,2445.42 1749.8,2433.51 1663.89,2426.92 C1362.03,2403.74 1192,2531.55 988.522,2735.29 C748.58,2975.53 513.096,2975.62 355.434,2648.79 C263.377,2458.04 162.311,2351.04 -0.01,2324.44 L-0.01,2336.17 C157.462,2362.7 255.009,2467.27 345.007,2653.83" id="Fill-16" fill="#C4C5C1" mask="url(#mask-2)"></path>
            <path d="M14.346,1412.98 C124.92,1467.98 200.361,1485.81 317.433,1517.04 C465.398,1556.52 583.979,1589.4 715.068,1672.74 C856.763,1762.83 936.185,1648.43 995.51,1533.86 C1047.16,1434.13 1080.65,1336.56 1194.82,1289.17 C1298.93,1245.96 1469.88,1269 1582.25,1276.34 C1695.51,1283.74 1746.81,1293.84 1855.33,1322.23 C2014.48,1363.86 2080.63,1365.49 2235.89,1292.75 C2370.86,1229.53 2452.69,1198.86 2596.4,1259.75 C2745.94,1323.05 2826.76,1413.84 2928.32,1533.18 C3040.13,1664.59 3104.48,1698.23 3259.84,1591.39 C3348.51,1530.39 3440.86,1419.05 3558.62,1460.76 C3628.37,1485.46 3658.92,1518.18 3743.27,1528.1 C3911.43,1547.89 4084.65,1441.95 4226.96,1364.44 C4328.83,1308.95 4391.759,1279.24 4509.89,1306.52 C4570,1320.4 4629.379,1336.73 4689.85,1351.42 L4689.85,1339.52 C4630.24,1324.99 4571.71,1308.93 4512.46,1295.26 C4391.16,1267.26 4325.82,1297.4 4221.37,1354.26 C4091.27,1425.12 3948.97,1512.46 3796.97,1518.52 C3696.46,1522.52 3662.01,1491.52 3578.41,1456.14 C3446.99,1400.6 3364.01,1502.4 3266.79,1572.3 C3111.83,1683.69 3052.3,1661.1 2937.08,1525.68 C2834.31,1404.83 2752.31,1313.15 2600.87,1249.04 C2453.91,1186.81 2369.04,1217.57 2230.96,1282.27 C2064.36,1360.27 2003.82,1349.12 1835.57,1305.07 C1738.33,1279.61 1683.83,1271.37 1583,1264.78 C1467.88,1257.26 1297.23,1234.12 1190.39,1278.46 C1061.78,1331.84 1032.31,1444.87 971.985,1553.28 C914.999,1655.78 844.687,1741.43 721.496,1663.11 C589.019,1578.89 469.896,1545.73 320.413,1505.85 C204.16,1474.85 129.259,1457.24 19.485,1402.61 C13.013,1399.39 6.511,1396.09 -0.02,1392.72 L-0.02,1405.72 C4.798,1408.19 9.587,1410.61 14.346,1412.98" id="Fill-17" fill="#C4C5C1" mask="url(#mask-2)"></path>
            <path d="M250.88,2612.72 C351.415,2794.36 410.461,2990.16 662.28,2984.45 C903.872,2978.96 1086.92,2734.45 1273,2602.09 C1517.04,2428.55 1621.92,2484.41 1896.91,2510.45 C2038.88,2523.89 2108.67,2489.5 2190.49,2374.3 C2268.56,2264.4 2323.38,2201.01 2456.25,2291.16 C2506.03,2324.92 2561.88,2372.83 2609.49,2411.16 C2706,2488.88 2814.23,2583.77 2834.89,2712.26 C2845.76,2779.84 2842.2,2822.11 2890.87,2878.26 C2937.95,2932.6 3014.53,2956.61 3084.83,2953.56 C3240.99,2946.78 3349.35,2907.71 3462.74,2796.18 C3527.6,2732.37 3567.71,2679.38 3665.54,2675.07 C3825.4,2668.07 3884.48,2660.07 4036.04,2616.07 C4293.48,2541.39 4354.049,2538.53 4621.339,2589.25 C4645.71,2593.88 4668.39,2598 4689.94,2601.38 L4689.94,2589.69 C4669.07,2586.38 4647.1,2582.37 4623.5,2577.89 C4354.38,2526.82 4292.05,2529.77 4032.81,2604.96 C3882.24,2648.64 3824.1,2656.47 3665.29,2663.47 C3563.31,2667.96 3522.07,2721.54 3454.62,2787.91 C3343.33,2897.39 3237.67,2935.32 3084.35,2941.97 C3017.77,2944.86 2944.53,2922.42 2899.84,2870.84 C2852.95,2816.72 2856.85,2775.63 2846.37,2710.43 C2825.1,2578.15 2716.11,2482.05 2616.8,2402.08 C2566.89,2361.88 2503.12,2306.77 2450.25,2273.25 C2316.8,2188.63 2255.69,2262.58 2181.12,2367.52 C2101.63,2479.4 2035.89,2512.04 1898.04,2498.94 C1620.11,2472.62 1513.55,2416.88 1266.34,2592.66 C1089.45,2718.43 907.281,2954.09 683.385,2971.82 C424.748,2992.31 363.702,2792.59 260.997,2607.12 C187.895,2475.12 107.344,2403.66 -0.01,2379.18 L-0.01,2391.04 C102.885,2415.4 180.077,2484.85 250.88,2612.72" id="Fill-18" fill="#C4C5C1" mask="url(#mask-2)"></path>
            <path d="M521.044,2268.39 C575.891,2302.48 852.964,2432.85 909.121,2411.78 C922.118,2406.9 1055.58,2305.02 1090.56,2284.61 C1188.53,2227.46 1281.92,2170.45 1381.98,2116.07 C1464.63,2071.15 1526.94,2034.93 1601.26,1976.07 C1731.23,1873.13 1794.72,1964.78 1901.5,2044.23 C2013.8,2127.79 2079.47,2059.63 2149.8,1991.48 C2237.01,1906.96 2331.4,1822.45 2530.77,2027.17 C2616.25,2114.94 2678.29,2177.68 2784.25,2243.73 C2924.73,2331.29 3102.44,2396.47 3263.44,2323.32 C3318.43,2298.32 3329.19,2274.87 3370.5,2239.25 C3426.68,2190.81 3507.91,2210.82 3573.3,2226.77 C3700.37,2257.77 3802.95,2297.33 3938.26,2292.55 C4136.75,2285.55 4269.919,2161.92 4418.45,2049.39 C4506.67,1982.55 4585.791,1940.91 4689.88,1969.76 L4689.88,1957.76 C4583.64,1929.47 4501.879,1971.66 4411.469,2040.16 C4207.31,2194.84 4084,2317.34 3802.51,2270.95 C3708.82,2255.5 3626.97,2224.61 3536.89,2206.81 C3340.86,2168.07 3381.92,2256.75 3258.67,2312.81 C3101.34,2384.29 2927.44,2319.38 2790.37,2233.93 C2685.27,2168.37 2623.87,2106.12 2539.06,2019.04 C2334.41,1808.93 2235.9,1893.9 2147.26,1978.88 C2077.28,2045.97 2013.45,2113.06 1908.4,2034.9 C1797.77,1952.58 1730.35,1859 1593.94,1967.07 C1520.24,2025.44 1458.39,2061.35 1376.47,2105.87 C1276.33,2160.3 1182.93,2217.33 1084.86,2274.52 C1051.25,2294.14 915.429,2397.04 904.852,2401.04 C854.494,2420.04 577.471,2289.85 527.143,2258.57 C317.663,2128.36 195.223,2062.45 -0.01,2049.89 L-0.01,2061.49 C192.814,2074.04 313.545,2139.41 521.044,2268.39" id="Fill-19" fill="#C4C5C1" mask="url(#mask-2)"></path>
            <path d="M538.9,2370.42 C653.872,2458.42 686.644,2433.75 802.546,2481.98 C851.965,2502.54 875.119,2514.34 922.957,2476.89 C969.286,2440.63 1005.06,2385.89 1058.45,2345.1 C1093.6,2318.26 1145.34,2290.75 1184.27,2266.64 C1305.85,2191.34 1677.91,1976.19 1809.05,2083.64 C1876.21,2138.64 1883.89,2210.29 1993.41,2177.45 C2157.77,2128.17 2226.43,1785.45 2511.22,2061.45 C2613.13,2160.19 2687.58,2233.58 2811.98,2306.78 C2923.04,2372.14 3080.84,2435.78 3210.05,2440.97 C3283.28,2443.91 3319.21,2426.2 3362.59,2366.97 C3402.29,2312.72 3424.33,2288.37 3493.97,2282.1 C3583.48,2274.03 3699.99,2310.62 3792.58,2323.93 C4081.32,2365.35 4203.77,2275.04 4430.549,2129.04 C4516.2,2073.9 4592.91,2035.81 4689.88,2058.85 L4689.88,2046.97 C4590.9,2024.4 4512.04,2062.83 4424.29,2119.32 C4206.62,2259.41 4084.69,2351.04 3807.15,2314.18 C3709.33,2301.18 3586.43,2262.06 3492.94,2270.49 C3419.73,2277.09 3394.96,2303.07 3353.16,2360.18 C3312.17,2416.18 3279.83,2432.18 3210.53,2429.38 C3083.28,2424.26 2927.21,2361.14 2817.83,2296.77 C2694.34,2224.09 2620.44,2151.13 2519.27,2053.11 C2226.53,1769.47 2147.42,2119.17 1990.16,2166.34 C1888.47,2196.85 1882.1,2128.53 1816.59,2074.86 C1681.19,1963.92 1319.71,2170.52 1192.47,2248.03 C1136.91,2281.87 1069.36,2317.44 1021.95,2360.73 C986.742,2392.87 950.571,2440.59 915.779,2467.83 C871.789,2502.29 852.315,2490.16 806.985,2471.3 C692.323,2423.59 658.572,2447.39 546.048,2361.3 C330.251,2196.3 219.457,2108.76 0.02,2094.13 L0.02,2105.75 C216.447,2120.43 325.362,2207.11 538.9,2370.42" id="Fill-20" fill="#C4C5C1" mask="url(#mask-2)"></path>
            <path d="M524.373,2445.97 C573.841,2493.97 621.11,2537.83 692.483,2544.61 C746.26,2549.72 749.769,2547.83 801.866,2571.35 C885.176,2608.96 918.429,2562.56 966.197,2499.27 C1042.34,2398.38 1059.6,2391.37 1163.32,2325.57 C1329.39,2220.2 1602.05,2072.95 1789.81,2198.57 C1837.41,2230.43 1873.92,2267.9 1937.4,2268.23 C2015.32,2268.62 2068.14,2202.04 2121.61,2135.46 C2206.5,2029.76 2293.02,1924.06 2484.2,2086.34 C2560.31,2150.95 2620.72,2212.99 2702.94,2273.91 C2831.13,2368.91 2983.58,2432.05 3124.31,2508.2 C3213.7,2556.58 3277.67,2588.88 3356.25,2497.77 C3436.32,2404.92 3479.63,2326.63 3621.01,2339.19 C3715.56,2347.58 3797.8,2381.86 3900.82,2384.83 C4051.16,2389.15 4220.13,2319.21 4352.87,2251.83 C4463.94,2195.45 4566.18,2133.05 4689.919,2154.3 L4689.919,2142.89 C4563.2,2121.95 4465.65,2181.61 4347.64,2241.51 C4209.48,2311.63 4036.97,2382.82 3880.13,2372.26 C3785.66,2365.9 3692.6,2330.18 3605.36,2326.57 C3470.19,2320.99 3424.01,2401.45 3347.42,2490.28 C3272.86,2576.75 3214.22,2543.74 3129.78,2498.05 C2989.81,2422.28 2837.22,2359.05 2709.79,2264.64 C2627.88,2203.95 2567.58,2142 2491.73,2077.64 C2183.44,1815.95 2131.99,2225.9 1957.28,2255.04 C1889.76,2266.31 1845.64,2222.04 1796.2,2188.95 C1579.59,2044.04 1271,2242.04 1086.92,2361.52 C1017.5,2406.52 995.48,2442.61 945.602,2507.26 C903.882,2561.35 875.589,2592.04 807.096,2561.04 C753.279,2536.74 749.11,2538.35 693.462,2533.04 C625.479,2526.58 579.611,2483.43 532.432,2437.66 C341.597,2252.55 220.337,2154.23 -0.01,2137.66 L-0.01,2149.28 C216.938,2165.93 335.84,2263.13 524.373,2445.97" id="Fill-21" fill="#C4C5C1" mask="url(#mask-2)"></path>
            <path d="M204.041,342.641 C277.633,398.101 302.637,464.411 410.931,476.161 C473.786,482.981 491.911,467.081 559.065,496.431 C637.296,530.631 704.83,599.791 792.659,639.171 C1032.6,746.761 1308.6,614.711 1531.48,520.661 C1614.36,485.661 1680.82,454.391 1759.34,411.171 C1876.76,346.511 1972.13,310.601 2103.98,355.551 C2223.22,396.19 2256.24,417.551 2391.23,420.881 C2541.12,424.541 2707.52,441.381 2856.3,461.76 C2992.37,480.4 3113.18,518.291 3187.6,642.93 C3244.95,738.98 3251.99,791.45 3383.91,789.541 C3783.05,783.781 3878.34,218.26 4239.12,230.281 C4297.22,232.22 4329.1,235.841 4388.77,228.811 C4497.299,216.031 4588.85,183.681 4689.88,172.561 L4689.88,160.861 C4588.31,171.861 4497.27,204.391 4387.41,217.331 C4328.37,224.281 4296.96,220.641 4239.5,218.72 C3877.02,206.65 3779.36,754.101 3402.7,777.26 C3262.26,785.9 3258.15,738.551 3197.53,637.021 C3121.1,509.021 2997.66,469.45 2857.86,450.301 C2708.64,429.861 2541.83,412.99 2391.5,409.301 C2258,406.041 2225.69,384.791 2107.72,344.581 C1972.47,298.49 1874.19,334.701 1753.75,401.021 C1675.59,444.021 1609.5,475.16 1526.97,510.021 C1312.23,600.641 1041.71,730.111 809.355,633.811 C713.798,594.21 647.524,522.5 563.704,485.861 C508.138,461.581 489.952,467.461 433.636,466.081 C313.335,463.081 290.61,393.421 211.009,333.441 C148.674,286.441 73.942,282.841 -0.02,296.791 L-0.02,308.611 C71.793,294.771 144.465,297.71 204.041,342.641" id="Fill-22" fill="#C4C5C1" mask="url(#mask-2)"></path>
            <path d="M183.456,535.041 C237.013,609.121 279.433,699.101 386.747,693.391 C470.607,688.931 437.904,622.681 606.084,662.621 C684.855,681.331 754.698,709.621 836.648,726.241 C1067.29,773.011 1268.64,719.541 1495.2,687.441 C1650.41,665.441 1773.25,601.691 1911.92,534.821 C2082.47,452.571 2194.46,485.211 2373.09,486.091 C2546.11,486.951 2783.35,516.021 2935.31,602.151 C3130.73,712.911 3098.94,968.441 3412.75,985.151 C3873.25,1009.71 3800.77,356.871 4253.72,334.041 C4328.23,330.291 4368.79,331.821 4443.31,314.751 C4551.58,289.951 4588.93,274.551 4689.93,297.281 L4689.93,285.431 C4588.879,263.061 4549.96,278.431 4440.719,303.431 C4366.97,320.321 4326.87,318.731 4253.15,322.431 C3799.51,345.291 3862.44,976.951 3434.74,974.191 C3109.15,972.091 3142.73,706.341 2941.02,592.001 C2787.15,504.781 2548.28,475.301 2373.08,474.441 C2205.32,473.611 2083.65,443.121 1922.76,516.791 C1773.58,585.091 1661.82,652.071 1493.64,675.891 C1269.08,707.711 1067.35,761.131 838.948,714.821 C751.739,697.141 673.987,664.561 589.858,647.051 C438.894,615.631 459.889,677.861 386.157,681.751 C284.641,687.121 243.481,598.251 192.843,528.191 C134.197,447.071 73.302,415.281 0.04,413.811 L0.04,425.341 C69.483,426.94 127.229,457.301 183.456,535.041" id="Fill-23" fill="#C4C5C1" mask="url(#mask-2)"></path>
            <path d="M192.664,433.561 C261.037,509.23 289.72,591.791 415.12,574.49 C474.106,566.351 492.021,555.49 554.536,572.66 C621.27,590.99 697.502,639.66 766.265,666.22 C967.837,744.22 1151.66,704.12 1351.53,648.22 C1496.29,607.7 1598.8,586.291 1738.52,521.811 C1946.47,425.811 1961.84,394.331 2205.92,434.581 C2298.33,449.821 2345.13,455.141 2436.56,456.641 C2561.82,458.701 2721.66,480.931 2844.9,505.861 C2989.87,535.191 3069.34,592.421 3144.28,721.721 C3205.51,827.351 3241.61,895.831 3379.23,901.001 C3478.6,904.731 3613.17,838.911 3681.83,768.881 C3761.42,687.751 3826.8,568.031 3902.72,476.991 C3977.13,387.821 4085.22,288.581 4207.18,281.151 C4271.59,277.231 4325.06,287.001 4393.879,276.901 C4489.669,262.841 4559.419,227.671 4664.18,226.631 C4672.17,226.551 4680.76,226.781 4689.85,227.301 L4689.85,216.041 C4665.8,214.744 4641.69,215.329 4617.74,217.791 C4536.54,226.51 4468.36,254.23 4392.2,265.411 C4324.08,275.411 4270.53,265.661 4206.52,269.561 C4080.91,277.21 3970.57,377.561 3893.84,469.561 C3818.24,560.161 3752.51,680.321 3673.57,760.771 C3607.16,828.46 3475.73,893.021 3379.65,889.42 C3246.81,884.42 3213.4,817.92 3154.28,715.92 C3077.65,583.71 2995.38,524.49 2847.17,494.51 C2723.2,469.43 2562.7,447.131 2436.73,445.061 C2345.88,443.571 2299.66,438.301 2207.79,423.151 C1960.85,382.431 1943.76,414.321 1733.66,511.291 C1594.7,575.45 1492.46,596.73 1348.39,637.061 C1127.45,698.921 944.392,736.151 726.785,636.96 C621.09,588.771 559.455,536.031 437.204,558.68 C294.429,585.13 281.572,514.76 201.261,425.85 C141.906,360.17 72.502,344.71 -0.01,352.36 L-0.01,363.92 C69.483,356.391 135.997,370.851 192.664,433.561" id="Fill-24" fill="#C4C5C1" mask="url(#mask-2)"></path>
            <path d="M181.336,641.041 C225.986,709.73 273.464,785.49 363.542,794.391 C434.015,801.391 461.079,737.591 546.268,723.391 C638.736,707.941 767.215,749.041 862.692,765.101 C1066.01,799.321 1155.7,766.971 1350.57,754.351 C1489.41,745.351 1580.52,751.461 1719.49,711.971 C1811.52,685.811 1871.45,656.481 1955.18,611.971 C2117.49,525.641 2235.97,527.561 2414.39,527.901 C2520.24,528.111 2735.08,563.691 2830.43,610.901 C2980.05,684.901 3006,824.001 3131.69,928.951 C3250.27,1027.95 3404.52,1077.06 3557.58,1041.34 C3728.03,1001.54 3823.4,853.131 3889.74,703.691 C3946.2,576.531 4043.07,404.241 4199.4,393.821 C4271.31,389.031 4314.86,389.231 4388.6,373.821 C4534.89,343.351 4560.1,337.381 4689.86,386.341 L4689.86,373.981 C4561.339,325.861 4533.21,331.891 4386.23,362.501 C4313.18,377.721 4270.109,377.501 4198.83,382.221 C4037.03,393.001 3937.74,567.031 3879.18,698.951 C3814.44,844.771 3721.45,991.151 3554.95,1030.03 C3405.48,1064.92 3254.93,1016.69 3139.13,920.031 C3012.84,814.581 2989.51,676.661 2835.6,600.491 C2738.46,552.421 2522.21,516.491 2414.37,516.331 C2233.69,515.981 2114.21,514.331 1949.79,601.751 C1866.81,645.871 1807.59,674.921 1716.37,700.841 C1573.76,741.371 1478.66,733.541 1336.65,743.701 C1138.5,757.891 1058.02,787.901 851.175,751.391 C749.719,733.401 617.351,689.041 518.375,717.821 C454.58,736.391 423.698,788.7 364.772,782.821 C279.043,774.311 233.504,699.941 191.094,634.681 C131.468,543.041 79.481,492.51 -0.01,480.391 L-0.01,492.111 C75.182,504.271 124.1,552.93 181.336,641.041" id="Fill-25" fill="#C4C5C1" mask="url(#mask-2)"></path>
            <path d="M497.38,203.2 C607.913,254.2 619.351,264.771 692.643,363.2 C796.078,502.12 881.967,601.291 1073.62,566.541 C1283.73,528.43 1396.67,365.311 1553.29,240.21 C1657.82,156.71 1778.49,66.92 1919.04,101.66 C2029.27,128.91 2171.15,222.75 2285.85,265.87 C2471.68,335.73 2761.63,337.63 2956.98,305.81 C3164.49,272.02 3274.14,245.35 3458.97,372.68 C3516.62,412.39 3555.94,435.31 3628.35,413.531 C3687.06,395.871 3773.73,332.23 3829.3,295.361 C3980.93,194.721 4069.12,77.53 4267.69,96.98 C4434.53,113.311 4550.36,76.64 4689.94,47.28 L4689.94,35.52 C4550.65,64.78 4434.19,101.66 4269.04,85.52 C4065.57,65.6 3977.58,183.101 3822.91,285.76 C3768.76,321.69 3681.86,385.39 3624.96,402.5 C3556.29,423.17 3519.98,400.74 3465.51,363.18 C3277.71,233.821 3165.74,260.121 2955.07,294.43 C2766.33,325.17 2490.18,323.65 2308.94,261.89 C2184.18,219.39 2041.26,119.99 1921.79,90.47 C1776.82,54.63 1653.85,145.081 1546.03,231.21 C1391.74,354.45 1278.09,517.73 1071.51,555.21 C873.359,591.14 795.018,479.44 689.874,340.291 C635.987,268.96 616.571,247.42 535.911,208.651 C381.768,134.521 246.841,78.881 72.752,122.921 C49.438,128.821 24.994,136.091 -0.06,144.201 L-0.06,156.531 C18.345,150.531 36.551,144.881 54.427,139.831 C225.636,91.401 343.127,132.041 497.38,203.2" id="Fill-26" fill="#C4C5C1" mask="url(#mask-2)"></path>
            <path d="M205.45,259.161 C267.715,284.541 303.277,314.931 358.184,347.711 C412.071,379.881 423.768,377.191 480.874,383.351 C570.163,392.99 663.83,503.111 737.712,555.701 C1021.32,757.581 1267.71,588.761 1529.72,448.911 C1599.44,411.691 1657.95,374.481 1724.41,333.491 C1915.47,215.651 1966.88,234.241 2169.84,322.881 C2311.11,384.571 2330.57,378.471 2474.44,387.881 C2612.57,396.941 2747.32,411.051 2886.22,417.881 C3026.89,424.751 3143.25,434.661 3237.8,551.671 C3303.85,633.411 3348.99,658.011 3456.75,656.541 C3596.58,654.651 3691.81,562.651 3786.09,469.741 C3925.85,332.021 4064.5,172.221 4279.19,186.591 C4445.94,197.751 4521.19,159.481 4674.24,128.091 C4679.48,127.017 4684.71,126.017 4689.919,125.091 L4689.919,113.271 C4531.63,142.181 4455.42,186.821 4280.14,175.091 C4055.02,160.031 3913.44,329.331 3766.88,472.421 C3677.69,559.511 3587.82,643.231 3456.59,645.011 C3352.53,646.421 3310.62,623.411 3246.94,544.611 C3149.79,424.381 3031.34,413.421 2886.78,406.361 C2760.66,400.191 2639.2,388.291 2513.76,379.091 C2382.99,369.501 2328.28,379.651 2198.84,323.011 C1964.03,220.291 1919.04,197.561 1698.33,336.101 C1634.03,376.461 1577.17,410.461 1509.86,446.351 C1320.67,547.2 1100.51,691.2 879.288,616.901 C772.714,581.111 718.727,525.621 635.917,455.981 C583.849,412.191 538.16,375.771 468.177,370.801 C409.111,366.611 384.097,351.881 336.079,319.701 C190.274,221.971 106.134,207.751 0.01,237.411 L0.01,249.261 C65.234,231.92 131.898,229.19 205.45,259.161" id="Fill-27" fill="#C4C5C1" mask="url(#mask-2)"></path>
            <path d="M180.177,179.891 C275.454,191.491 332.14,228.301 413.65,267.501 C457.11,288.401 479.114,293.431 524.174,304.631 C586.059,320.021 641.705,399.051 682.445,444.631 C955.2,749.771 1214.74,584.631 1483.12,393.631 C1529.77,360.411 1576.26,330.021 1622.78,296.031 C1716.25,227.72 1821.79,148.95 1943.07,173.391 C2074.16,199.801 2205.55,304.871 2338.29,334.391 C2397.27,347.511 2479.78,353.191 2540.37,357.861 C2680.55,368.671 2802.11,363.061 2940.93,361.431 C3110.11,359.431 3204.49,365.791 3347.76,461.431 C3454.59,532.71 3506.65,562.041 3632.88,498.041 C3798.51,414.041 3987.72,194.71 4147.449,151.311 C4210.56,134.161 4305.77,143.651 4374.77,139.641 C4476.63,133.731 4584.71,105.751 4689.88,86.921 L4689.88,75.35 C4583.56,94.211 4474.3,122.281 4374.07,128.101 C4303.32,132.211 4209.6,122.431 4144.42,140.101 C3986.35,183.101 3799.5,394.451 3641.37,480.46 C3527.4,542.46 3474.13,532.46 3370.94,463.021 C3225.82,365.41 3151.5,350.551 2978.2,349.621 C2857.42,348.981 2743.1,356.351 2620.78,351.031 C2545.86,347.76 2451.95,340.881 2378.46,329.91 C2224.05,306.91 2107.3,202.91 1961.88,165.75 C1826.91,131.301 1720.52,210.17 1615.96,286.591 C1569.49,320.591 1523.04,350.921 1476.42,384.101 C1222.08,565.181 968.546,733.571 703.17,450.101 C655.911,399.621 596.856,310.75 526.883,293.341 C465.537,278.081 443.713,270.72 387.666,241.201 C219.627,152.661 118.451,151.561 -0.001,188.741 L-0.001,201.041 C59.636,183.041 120.231,172.591 180.177,179.891" id="Fill-28" fill="#C4C5C1" mask="url(#mask-2)"></path>
            <path d="M-0.01,2989.75 L-0.01,3000.04 L14.866,3000.04 C9.888,2996.56 4.929,2993.13 -0.01,2989.75" id="Fill-29" fill="#C4C5C1" mask="url(#mask-2)"></path>
            <path d="M166.46,733.041 C211.209,800.21 271.435,872.2 353.525,892.861 C437.555,914.01 484.263,835.921 560.705,803.601 C647.544,766.891 742.991,788.48 832.909,799.461 C953.76,814.221 1034.72,820.461 1157.01,817.461 C1250.99,815.161 1335.53,811.571 1430.11,814.941 C1633.31,822.181 1707.1,811.051 1896.91,726.551 C2216.94,584.071 2285.39,516.491 2648.38,605.761 C2780.28,638.201 2854.93,703.481 2932.93,812.761 C3028.42,946.501 3091.35,1021.15 3253.99,1067.39 C3386.12,1104.96 3580.59,1121.29 3705.26,1055.12 C3856.79,974.701 3911.65,796.221 3983.98,652.461 C4089.6,442.521 4242.919,436.161 4453.3,420.331 C4557.77,412.47 4582.94,439.681 4670,487.071 C4677.16,490.97 4683.71,494.331 4689.88,497.311 L4689.88,484.551 C4594.39,435.871 4570.33,399.93 4452.44,408.801 C4237.74,424.95 4081.53,432.871 3973.65,647.271 C3905.85,782.031 3852.11,952.271 3717.04,1035.08 C3596.23,1109.08 3409.2,1095.08 3276.51,1061.47 C3105.75,1018.21 3041.65,945.101 2942.36,806.041 C2862.63,694.381 2785.85,627.74 2651.15,594.541 C2285.43,504.42 2214.37,572.541 1892.2,715.99 C1704.02,799.781 1631.94,810.571 1430.52,803.39 C1335.7,800.02 1250.99,803.6 1156.72,805.91 C1034.99,808.91 954.62,802.66 834.309,787.97 C736.383,776.021 635.957,753.63 542.999,798.97 C477.015,831.15 430.446,900.311 356.354,881.64 C270.855,860.1 212.119,781.64 166.53,712.13 C111.413,628.13 69.023,574.35 -0.01,552.56 L-0.01,564.71 C70.483,588.23 108.994,646.76 166.46,733.041" id="Fill-30" fill="#C4C5C1" mask="url(#mask-2)"></path>
            <path d="M44.089,1063.74 C143.486,1188.38 222.047,1241.22 384.607,1238.29 C489.952,1236.38 590.897,1207.6 694.133,1188.35 C795.378,1169.47 851.704,1114.14 943.153,1086.84 C1076.15,1047.13 1227.97,1067.54 1381.22,1087.94 C1514.48,1105.68 1648.82,1123.42 1772.81,1101.65 C1895.09,1080.18 2011.34,1023.77 2111.18,951.22 C2213.57,876.811 2308.13,805.321 2443.3,840.9 C2544.17,867.461 2636.16,969.971 2716.11,1037.32 C2816.74,1122.1 2914.37,1224.09 3018.43,1303.43 C3077.42,1348.43 3106.15,1358.07 3180.73,1336.14 C3235.8,1319.96 3274.05,1294.51 3335.99,1281.23 C3403.04,1266.85 3497.9,1266.62 3569.33,1260.6 C3937.71,1229.6 3977.83,1133.77 4234.17,918.22 C4296.97,865.411 4387.4,797.061 4468.049,852.75 C4530.46,895.841 4562.52,968.02 4643.009,1012.34 C4657.86,1020.53 4673.58,1027.03 4689.88,1031.72 L4689.88,1020.11 C4591.589,989.651 4559.3,911.86 4487.53,853.06 C4396.55,778.51 4301.57,846.43 4226.72,909.37 C3972.33,1123.28 3933.4,1218.37 3568.36,1249.08 C3496.2,1255.16 3401.4,1255.37 3333.55,1269.93 C3270.74,1283.39 3232.82,1308.77 3177.44,1325.06 C3106.68,1345.86 3081.28,1336.81 3025.48,1294.24 C2921.59,1215.04 2823.95,1113.04 2723.45,1028.39 C2641.41,959.28 2550.3,857.111 2446.26,829.721 C2317.37,795.79 2221.73,855.861 2122.62,928.52 C2028.46,997.521 1936.13,1049.44 1822.25,1079.08 C1677.79,1116.69 1528.17,1096.45 1380.21,1076.21 C1237.51,1056.69 1096.35,1037.18 962.868,1069.56 C859.493,1094.63 796.359,1157.56 692.033,1176.98 C589.728,1196.04 488.642,1224.84 384.407,1226.72 C225.556,1229.6 150.274,1178.32 53.148,1056.55 C34.371,1033 16.965,1011.67 5.45674617e-14,992.411 L5.45674617e-14,1010.04 C14.076,1026.43 28.593,1044.31 44.089,1063.74" id="Fill-31" fill="#C4C5C1" mask="url(#mask-2)"></path>
            <path d="M189.294,858.46 C252.929,939.76 351.355,1013.78 456.23,958.23 C515.296,926.95 551.297,886.51 620.91,858.5 C729.884,814.66 847.246,839.071 960.109,848.841 C1051.09,856.711 1133.3,858.301 1223.62,861.021 C1324.36,864.021 1415.15,881.42 1513.01,888.021 C1718.16,901.93 1868,822.611 2039.77,725.631 C2240.83,612.101 2451.28,566.551 2672.13,655.901 C2865.55,734.161 2833.39,890.591 2982.82,1009.05 C3095.46,1098.34 3298.4,1129.66 3440.77,1141.22 C3716.07,1163.58 3884.93,1024.97 3998.069,785.351 C4042.42,691.421 4079.89,557.801 4189.799,522.091 C4241.54,505.281 4338.86,498.821 4396.63,489.411 C4446.32,481.311 4508.28,464.051 4545.64,506.781 C4575.04,540.401 4578.509,557.371 4623,582.571 C4644.93,595.001 4667.25,602.701 4689.87,609.141 L4689.87,597.531 C4677.219,593.94 4664.81,589.524 4652.74,584.311 C4591.31,557.191 4592.541,542.811 4554.43,499.311 C4512.97,451.941 4449.61,469.101 4394.77,478.031 C4335.98,487.611 4239.13,493.941 4186.28,511.111 C4089.1,542.691 4047.53,643.461 4010.02,730.351 C3925.22,926.791 3812.07,1088.24 3584.58,1124.89 C3422.62,1150.99 3143.08,1107.68 3011.39,1015.89 C2841.65,897.611 2882.29,728.461 2676.47,645.181 C2452.28,554.471 2238.3,600.261 2034.1,715.561 C1864.57,811.281 1716.28,890.211 1513.8,876.481 C1415.83,869.831 1324.96,852.481 1223.98,849.421 C1133.89,846.711 1051.91,845.131 961.128,837.281 C845.666,827.281 728.184,802.851 616.611,847.731 C545.728,876.251 510.337,916.441 450.761,948.011 C344.787,1004.19 247.45,917.961 187.165,836.461 C118.251,743.291 79.301,666.851 5.45674617e-14,629.461 L5.45674617e-14,642.511 C80.72,682.98 116.592,765.561 189.294,858.46" id="Fill-32" fill="#C4C5C1" mask="url(#mask-2)"></path>
            <path d="M208.77,1434.71 C384.657,1486.15 564.534,1542.71 741.571,1588.63 C797.218,1603.08 815.554,1610.93 864.951,1571.69 C933.305,1517.37 975.924,1414.55 1037.41,1345.46 C1173.16,1192.8 1339.34,1221.36 1522.69,1239.26 C1627.09,1249.46 1720.24,1265.46 1823.17,1280.53 C1894.26,1290.94 1995.84,1309.23 2065.22,1290.34 C2164.35,1263.34 2240.81,1205.84 2331.42,1170.27 C2458.83,1120.27 2569.74,1173.69 2679.06,1240.71 C2799.46,1314.51 2860.4,1401.64 2955.76,1499.27 C3084.05,1630.62 3167.87,1617.57 3302.38,1505.6 C3402.98,1421.86 3484.2,1374.92 3619.72,1402.38 C3733.42,1425.38 3792.41,1450.72 3911.23,1432.1 C4053.92,1409.73 4151.98,1345.87 4272.699,1278.25 C4326.02,1248.39 4397.88,1204.66 4460.87,1222.73 C4493.37,1232.04 4545.2,1259.94 4582.23,1273.36 C4614.12,1284.9 4651.22,1295.03 4689.88,1303.76 L4689.88,1291.91 C4652.629,1283.42 4616.9,1273.61 4586.17,1262.48 C4548.69,1248.91 4497.32,1221.13 4464.15,1211.64 C4396.43,1192.24 4324.19,1236.15 4267.03,1268.18 C4147.79,1334.96 4050.31,1398.59 3909.44,1420.67 C3792.54,1439 3733.96,1413.67 3622.05,1391.05 C3482.67,1362.82 3398.32,1410.7 3294.89,1496.8 C3164.98,1604.94 3087.75,1617.8 2964.04,1491.2 C2859.93,1384.6 2804.5,1301.29 2670.77,1222.2 C2551.65,1151.79 2446.43,1107.5 2312.03,1165.76 C2214.32,1208.11 2155.65,1253.7 2045.15,1283.76 C2012.15,1288.45 1987.73,1287.33 1955.05,1284.76 C1817.01,1273.87 1677.94,1242.76 1537.49,1229.04 C1332.09,1209.04 1159.01,1176.65 1013.35,1355.89 C961.469,1419.73 920.369,1512.79 857.744,1562.6 C811.515,1599.34 796.528,1590.9 744.471,1577.39 C567.513,1531.46 387.786,1474.97 212.019,1423.56 C124.1,1397.85 65.915,1367.88 -0.01,1327.89 L-0.01,1341.39 C64.374,1380.17 122.371,1409.45 208.77,1434.71" id="Fill-33" fill="#C4C5C1" mask="url(#mask-2)"></path>
            <path d="M133.468,1232.55 C248.89,1303.87 359.773,1306.05 490.871,1301.26 C556.706,1298.85 598.576,1302.26 662.83,1307.57 C719.576,1312.22 753.089,1282.92 799.637,1252.83 C939.724,1162.3 990.261,1118.29 1166.05,1115.28 C1257.93,1113.71 1347.82,1124.09 1437.73,1134.48 C1573.36,1150.14 1709.05,1165.81 1851.74,1140.43 C1961.94,1120.83 2042.7,1086.01 2131.36,1017.9 C2248.03,928.29 2321.12,876.021 2474.49,944.721 C2599.87,1000.88 2749.95,1118.04 2850.21,1213.28 C2913.89,1273.78 3055.64,1418.41 3144.5,1413.82 C3192.42,1411.34 3249.92,1356 3301.15,1332.69 C3379.31,1297.13 3477.88,1299.29 3563.76,1292.75 C3760.45,1277.75 3873.78,1266.63 4048.33,1156.11 C4132.74,1102.67 4213.22,1043.11 4296.46,988.34 C4500.41,854.18 4501.77,1063.77 4689.88,1122.34 L4689.88,1111.1 C4634.83,1093.81 4594.82,1059.84 4538.86,1005.04 C4450.81,918.791 4400.2,906.261 4289.98,978.77 C4206.839,1033.46 4126.449,1092.96 4042.15,1146.34 C3869.43,1255.7 3757.56,1266.34 3562.88,1281.22 C3467.28,1288.5 3368.87,1284.74 3282.42,1328.91 C3239.73,1350.72 3185.99,1400.1 3143.88,1402.27 C3060.57,1406.56 2918.45,1262.16 2858.18,1204.9 C2755.96,1107.78 2574.69,965.4 2442.97,919.661 C2242.59,850.07 2172.6,1002.66 2020.5,1075.04 C1742.57,1207.29 1466.81,1103.93 1182.79,1103.59 C985.173,1103.36 934.914,1152.65 778.002,1253 C737.322,1279.04 712.908,1300.04 663.87,1296.04 C599.185,1290.72 556.786,1287.26 490.492,1289.68 C372.111,1294.01 271.665,1293.84 163.89,1236.68 C93.827,1199.5 45.129,1148.07 -0.01,1097.32 L-0.01,1114.63 C37.661,1156.61 78.761,1198.73 133.468,1232.55" id="Fill-34" fill="#C4C5C1" mask="url(#mask-2)"></path>
            <path d="M312.755,1410.32 C417.43,1433.47 520.125,1462.16 624.27,1486.32 C776.812,1521.65 832.639,1479.99 927.897,1371.32 C1030.04,1254.76 1119.02,1199.03 1276.58,1191.41 C1377.61,1186.53 1506.27,1203.56 1608.38,1213.75 C1694.9,1222.39 1961.87,1262.75 2028.97,1236.85 C2122.21,1200.79 2195,1139.23 2281.35,1099.3 C2402.43,1043.3 2510.46,1092.17 2620.41,1150.8 C2742.38,1215.8 2811.01,1270.67 2897.51,1376.45 C2951.5,1442.45 3016.66,1501.25 3097.71,1531.6 C3214.55,1575.34 3239.96,1473.05 3331.34,1415.48 C3422.99,1357.73 3547.29,1361.67 3653.2,1360.06 C3949.47,1355.56 4040.62,1358.41 4287.05,1178.71 C4351.41,1131.78 4400.67,1106.87 4475.7,1150.62 C4551.55,1194.85 4580.15,1228.92 4674.23,1247.73 C4679.38,1248.76 4684.58,1249.76 4689.839,1250.73 L4689.839,1238.97 C4685.36,1238.14 4680.9,1237.29 4676.49,1236.41 C4584.509,1218.02 4555.93,1184.02 4481.6,1140.69 C4401.919,1094.25 4348.34,1119.69 4280.12,1169.47 C4035.86,1347.55 3946.62,1344.06 3652.98,1348.47 C3536.67,1350.24 3408.54,1345.47 3310.33,1415.62 C3230.96,1472.3 3205.88,1559.74 3101.75,1520.74 C3022.61,1491.11 2959.08,1433.49 2906.43,1369.11 C2818.95,1262.11 2749.11,1206.33 2625.81,1140.57 C2512.27,1080.02 2401.45,1030.96 2276.44,1088.78 C2189.52,1128.98 2119.84,1187.64 2024.85,1226 C1929.33,1249.53 1715.93,1212.84 1609.5,1202.22 C1506.68,1191.96 1377.8,1174.91 1276.04,1179.83 C1115.27,1187.61 1023.43,1244.68 919.129,1363.68 C826.851,1469.04 775.003,1509.32 626.939,1475.04 C522.734,1450.9 419.989,1422.2 315.254,1399.04 C173.788,1367.77 99.476,1326.16 -0.01,1253.16 L-0.01,1267.16 C95.227,1336.61 169.39,1378.63 312.755,1410.32" id="Fill-35" fill="#C4C5C1" mask="url(#mask-2)"></path>
            <path d="M324.422,1353.47 C383.147,1362.47 436.005,1363.31 496.531,1375.56 C660.611,1408.79 682.145,1452.26 833.099,1335.16 C921.228,1266.8 957.92,1219.58 1072.14,1182.94 C1219.04,1135.82 1374.13,1155.83 1530.33,1175.84 C1714.03,1199.38 1899.28,1222.91 2074.61,1137.26 C2144.42,1103.16 2206.88,1056.17 2273.2,1024.06 C2390.17,967.46 2493.15,1015.94 2598.38,1076.87 C2689.21,1129.46 2774.72,1192.87 2849.62,1266.36 C2910.22,1325.78 3070.43,1504.95 3162.61,1478.36 C3198.9,1467.89 3296.85,1407.47 3329.68,1383.73 C3388.89,1340.88 3398.9,1339.21 3474.58,1331.98 C3680.47,1312.33 3845.81,1324.2 4044.32,1238.2 C4142.11,1195.83 4214.08,1145.1 4304.05,1092.54 C4365.04,1056.94 4427.86,1024.94 4493.12,1068.65 C4538.88,1099.31 4561.1,1129.57 4616.83,1158.06 C4640.129,1169.84 4664.62,1179.09 4689.89,1185.65 L4689.89,1173.65 C4666.46,1167.38 4643.74,1158.7 4622.1,1147.75 C4567.46,1119.81 4544.88,1089.37 4499.67,1059.11 C4429.74,1012.31 4363.53,1044.4 4298.219,1082.54 C4208.75,1134.81 4136.949,1185.46 4039.73,1227.54 C3843.06,1312.74 3677.63,1300.93 3473.49,1320.42 C3395.8,1327.83 3383.91,1330.16 3322.86,1374.34 C3291.25,1397.21 3194.05,1457.2 3159.42,1467.19 C3074.87,1491.57 2913.72,1312.96 2857.72,1258.05 C2782.13,1183.92 2695.84,1119.88 2604.17,1066.8 C2495.2,1003.73 2389.15,955.03 2268.15,1013.6 C2201.69,1045.77 2139.28,1092.74 2069.49,1126.83 C1897.27,1210.97 1713.69,1187.6 1530.64,1164.23 C1373.75,1144.2 1217.25,1124.17 1068.62,1171.83 C941.933,1212.46 905.802,1267.68 807.775,1339.73 C681.916,1432.22 654.602,1398.86 517.366,1368.1 C454.151,1353.93 407.062,1352.45 344.978,1344.58 C188.765,1324.77 99.926,1269.18 5.45674617e-14,1181.12 L5.45674617e-14,1196.57 C93.197,1277.83 179.186,1331.13 324.422,1353.47" id="Fill-36" fill="#C4C5C1" mask="url(#mask-2)"></path>
            <path d="M162.231,918.91 C248.471,1029.91 359.563,1098.33 495.151,1025.91 C597.126,971.441 659.341,888.021 784.761,883.911 C958.569,878.25 1197.19,916.38 1371.4,945.061 C1621.99,986.31 1768.38,944.61 1982.77,820.681 C2207.04,691.031 2499.33,533.981 2715.26,766.381 C2769.5,824.771 2807.82,896.881 2861.9,959.38 C3032.65,1156.86 3118.77,1141.58 3365.78,1167.21 C3666.52,1198.43 3871.35,1141.13 4028.7,865.311 C4072.12,789.191 4132.669,642.55 4206.91,600.081 C4239.839,581.24 4379.86,554.081 4419.8,557.411 C4517.15,565.48 4574.77,686.741 4670.36,723.491 C4676.73,725.941 4683.25,728.14 4689.9,730.15 L4689.9,718.061 C4684.669,716.401 4679.52,714.631 4674.49,712.691 C4585.129,678.351 4529.969,567.521 4438.28,548.381 C4392.73,538.871 4291.17,561.62 4243.42,573.811 C4179.32,590.17 4144.9,633.87 4111.93,687.81 C4029.47,822.86 3991.96,952.48 3857.52,1056.23 C3706.61,1172.75 3532.43,1172.04 3353.74,1154.42 C3115.25,1130.86 3033.97,1140.72 2870.68,951.871 C2823.92,897.78 2792.28,841.241 2749.19,787.93 C2526.35,512.231 2225.37,667.101 1977.01,810.68 C1765.06,933.24 1621.22,974.471 1373.36,933.681 C1198.26,904.851 959.149,866.681 784.411,872.371 C654.593,876.601 594.096,959.951 489.722,1015.7 C351.165,1089.7 243.691,1009.16 160.172,897.061 C101.985,818.96 61.425,755.611 -0.01,715.061 L-0.01,728.96 C62.144,772.391 100.896,839.93 162.231,918.91" id="Fill-37" fill="#C4C5C1" mask="url(#mask-2)"></path>
            <path d="M103.176,934.911 C166.979,1022.21 243.781,1108.47 357.803,1123.91 C534.622,1147.82 662.56,957.27 863.532,944.351 C1049.49,932.35 1239.44,993.51 1425.65,1010.49 C1621.6,1028.37 1744.57,1024.37 1923.53,926.75 C2056.63,854.121 2264.52,708.96 2411.41,704.11 C2542.02,699.8 2629.45,775.01 2707.54,870.261 C2815.77,1002.26 2949.48,1194.19 3135.8,1205.26 C3180.08,1207.89 3227.4,1207.22 3274.26,1206.55 C3301.34,1206.16 3328.26,1205.77 3354.34,1206.02 C3620.96,1208.55 3884.51,1174.02 4051.23,939.64 C4108.65,858.911 4165.55,722.641 4243.91,669.48 C4302.2,629.901 4396.3,622.371 4461.41,643.931 C4565.15,678.28 4522.4,791.35 4689.839,827.6 L4689.839,815.79 C4675.32,812.699 4661.08,808.377 4647.29,802.87 C4558.89,767.321 4566.03,710.791 4515.32,662.571 C4454.88,605.131 4318.08,611.741 4248.75,652.731 C4158.77,705.941 4103.59,846.1 4041.8,932.941 C3877.6,1163.82 3616.9,1196.94 3354.44,1194.45 C3328.38,1194.2 3301.47,1194.59 3274.4,1194.98 C3227.66,1195.66 3180.44,1196.33 3136.31,1193.71 C2954.92,1182.93 2821.85,991.471 2716.47,862.931 C2635.93,764.69 2545.51,688.12 2411.02,692.55 C2260.6,697.551 2053.7,842.55 1917.93,916.6 C1741.19,1013.04 1620.24,1016.6 1426.65,998.98 C1239.83,981.92 1030.25,915.84 846.026,934.041 C659.741,952.52 525.373,1134.9 359.353,1112.44 C249,1097.51 174.228,1012.53 112.513,928.091 C72.832,873.79 38.8,833.02 -0.01,802.24 L-0.01,817.15 C35.082,846.541 66.555,884.81 103.176,934.911" id="Fill-38" fill="#C4C5C1" mask="url(#mask-2)"></path>
            <path d="M90.708,1013.52 C176.487,1123.8 244.351,1187.73 393.886,1183.28 C568.053,1178.1 698.811,1060.21 869.3,1019.28 C1005.18,986.691 1105.98,1004.69 1239.43,1032.02 C1390.75,1063.02 1613.46,1078.02 1765.9,1048.9 C1914.87,1020.49 1992.85,966.21 2107.89,875.9 C2221.95,786.4 2321.33,742.45 2470.36,769.44 C2621.33,796.8 2680.93,933.751 2783.8,1032.87 C2866.78,1112.87 3029.74,1293.31 3154.35,1276.68 C3173.96,1274.07 3219.21,1257.26 3244.65,1251.57 C3453.91,1204.7 3643.44,1274.2 3858.23,1168.69 C4025.99,1086.27 4094.77,960.261 4210.669,826.89 C4323.14,697.451 4403.25,699.581 4529.1,817.171 C4582.25,866.821 4624.08,923.61 4689.88,945.17 L4689.88,932.84 C4628.05,910.901 4587.169,855.61 4537,808.73 C4406.4,686.73 4318.92,684.68 4201.93,819.32 C4095.17,942.17 4029.52,1059.68 3881.22,1143.49 C3659.86,1268.6 3462.46,1190.95 3242.13,1240.29 C3217.31,1245.85 3171.49,1262.74 3152.87,1265.22 C3034.26,1281.03 2871.14,1100.98 2791.72,1024.45 C2686.51,923.07 2628.64,786.38 2472.42,758.07 C2320.05,730.47 2217.49,775.24 2100.75,866.81 C1987.22,955.891 1910.72,1009.49 1763.74,1037.52 C1612.84,1066.3 1391.51,1051.35 1241.77,1020.68 C1101.16,991.88 995.83,974.011 853.324,1011.35 C690.683,1053.97 560.395,1166.7 393.625,1171.66 C248.11,1175.98 183.276,1113.66 99.846,1006.37 C64.515,960.95 32.962,923.741 -0.01,893.231 L-0.01,909.1 C29.703,937.8 58.555,972.18 90.708,1013.52" id="Fill-39" fill="#C4C5C1" mask="url(#mask-2)"></path>
            <path d="M2256.26,146.871 C2361.8,203.031 2473.84,222.181 2592.66,226.991 C2779.01,234.531 2870.42,190.901 3039.71,143.441 C3239.03,87.551 3367.04,113.391 3560.15,180.441 C3730.11,239.441 3896.3,109.621 4043.51,41.58 C4085.24,22.3 4120.49,8.16 4156.73,0.06 L4114.02,0.06 C4083.03,10.381 4051.7,24.49 4016.64,41.57 C3880.58,107.821 3722.17,224.451 3564.22,169.571 C3368.66,101.681 3238.46,75.671 3036.59,132.271 C2868.78,179.271 2777.73,222.881 2593.13,215.41 C2476.15,210.67 2365.63,191.94 2261.69,136.63 C2171.41,88.63 2080.04,34.07 1982.76,0.01 L1946.13,0.01 C2055.38,32.14 2156.7,93.891 2256.26,146.871" id="Fill-40" fill="#C4C5C1" mask="url(#mask-2)"></path>
            <path d="M116.212,18.881 C151.709,9.815 187.855,3.516 224.326,0.04 L146.695,0.04 C135.691,2.307 124.59,4.847 113.393,7.661 C74.522,17.421 37.041,28.891 -0.01,40.941 L-0.01,53.04 C37.941,40.69 76.341,28.891 116.212,18.881" id="Fill-41" fill="#C4C5C1" mask="url(#mask-2)"></path>
            <path d="M87.479,3000.04 L104.775,3000.04 C67.114,2966.04 33.282,2932.11 0.01,2902.45 L0.01,2918.11 C27.633,2943.27 56.116,2971.37 87.479,3000.04" id="Fill-42" fill="#C4C5C1" mask="url(#mask-2)"></path>
            <path d="M4329.46,38.49 C4221.34,22.02 4156.27,20.55 4057.39,73.78 C3946.75,133.351 3861.56,216.411 3737.41,262.781 C3604.44,312.43 3545.12,275.781 3426.14,223.631 C3272.11,156.071 3153.49,168.631 2995.49,219.01 C2786.69,285.541 2540.76,297.49 2332.65,222.2 C2127.81,148.11 1927.75,-35.65 1695.03,42.39 C1503.08,106.76 1378.46,342.72 1196.64,456.49 C1073.41,533.601 954.05,561.71 842.617,445.571 C738.402,336.97 700.801,213.96 556.996,132.701 C334.959,7.221 176.467,35.181 0.04,93.651 L0.04,105.281 C95.647,74.48 192.134,51.28 286.771,57.05 C406.322,64.361 557.176,126.591 641.385,210.76 C735.453,304.76 815.673,483.96 939.393,525.121 C1092.85,576.121 1268.94,428.481 1368.11,326.621 C1552.4,137.341 1674.2,-38.379 1972.24,66.461 C2113.33,116.081 2223.25,204.281 2376.55,248.671 C2577.29,306.811 2801.31,293.021 2999.13,229.991 C3154.31,180.541 3270.23,167.861 3421.51,234.211 C3543.48,287.721 3605.12,324.541 3741.43,273.611 C3867.14,226.661 3951.38,143.961 4062.85,83.951 C4159.42,31.951 4222.17,33.84 4327.7,49.951 C4471.049,71.791 4573.98,39.671 4689.89,10.711 L4689.89,0.04 L4684.29,0.04 C4572.95,28.32 4469.57,59.84 4329.46,38.49" id="Fill-43" fill="#C4C5C1" mask="url(#mask-2)"></path>
            <path d="M983.723,59.75 C1096.7,158.321 1155.38,84.29 1227.99,0.04 L1212.6,0.04 C1144.86,78.7 1093.63,140.371 991.471,51.17 C970.116,32.54 951.351,15.65 933.585,0.04 L916.039,0.04 C936.714,18.04 958.379,37.631 983.723,59.75" id="Fill-44" fill="#C4C5C1" mask="url(#mask-2)"></path>
            <path d="M158.902,2703.14 C224.346,2818.98 275.973,2928.95 365.412,3000.04 L384.527,3000.04 C283.642,2927.04 231.994,2805.55 160.241,2682.21 C110.793,2597.21 59.946,2541.75 -0.01,2511.96 L-0.01,2524.85 C59.646,2556.39 109.084,2614.98 158.902,2703.14" id="Fill-45" fill="#C4C5C1" mask="url(#mask-2)"></path>
            <path d="M965.377,186.51 C1072.55,303.301 1169.17,187.51 1240.59,97.67 C1264.41,67.67 1289.11,32.861 1315.97,0.04 L1301.05,0.04 C1267.05,41.95 1235.52,87.04 1204.91,123.041 C1138.87,200.76 1062.07,274.791 974.065,178.881 C920.628,120.651 872.29,53.04 813.164,0.04 L795.308,0.04 C857.783,52.43 898.893,114.041 965.377,186.51" id="Fill-46" fill="#C4C5C1" mask="url(#mask-2)"></path>
            <path d="M299.778,3000.04 L317.054,3000.04 C246.691,2937.7 193.633,2852.68 133.468,2759.19 C88.569,2689.45 46.639,2635.96 -0.01,2600.85 L-0.01,2614.64 C111.973,2700.45 168.169,2879.83 299.778,3000.04" id="Fill-47" fill="#C4C5C1" mask="url(#mask-2)"></path>
            <path d="M123.22,2963.63 C134.911,2976.39 146.678,2988.53 158.522,3000.04 L175.008,3000.04 C164.784,2990.35 154.633,2980.2 144.555,2969.58 C88.309,2910.21 44.489,2851.76 -0.01,2805.92 L-0.01,2822.44 C37.691,2862.62 75.931,2912.04 123.22,2963.63" id="Fill-48" fill="#C4C5C1" mask="url(#mask-2)"></path>
            <path d="M226.135,3000.04 L243.341,3000.04 C190.684,2948.82 144.845,2886.04 94.017,2815.19 C61.355,2769.68 30.972,2732.04 0.04,2702.94 L0.04,2717.04 C74.912,2790.12 130.768,2905.62 226.135,3000.04" id="Fill-49" fill="#C4C5C1" mask="url(#mask-2)"></path>
            <path d="M2715,98.6 C2801.97,83.471 2850.21,59.421 2930.54,31.451 C2966.77,18.665 3003.76,8.174 3041.3,0.04 L2992.66,0.04 C2956.58,9.96 2918.24,22.95 2876.13,39.611 C2702.85,108.141 2551.51,117.041 2370.93,58.68 C2317.67,41.46 2267.72,21.1 2219.6,0.04 L2195.6,0.04 C2357.81,72.58 2507.42,134.72 2715,98.6" id="Fill-50" fill="#C4C5C1" mask="url(#mask-2)"></path>
            <path d="M2253.21,87.71 C2392.86,155.9 2605.93,191.48 2760.33,156.6 C2879.96,129.6 2970.67,72.74 3101.32,53.73 C3257.75,30.96 3413.45,60.45 3566.06,92.16 C3705.2,121.07 3775.47,100.3 3905.22,46.3 C3946.26,29.22 3980.27,13.63 4010.78,0.04 L3982.589,0.04 C3958.23,10.93 3931.43,22.86 3900.77,35.62 C3773.23,88.7 3705.1,109.24 3568.42,80.84 C3409.7,47.84 3247.95,17.52 3085.54,44.48 C2962.43,64.92 2871.68,119.59 2757.79,145.32 C2606.03,179.6 2395.56,144.32 2258.37,77.32 C2206.87,52.17 2152.95,24.93 2097.4,0 L2068.7,0 C2132.72,27.66 2194.72,59.16 2253.21,87.71" id="Fill-51" fill="#C4C5C1" mask="url(#mask-2)"></path>
            <path d="M204.071,2655.97 C281.292,2798.62 335.419,2937.46 467.767,3000.04 L497.93,3000.04 C342.967,2942.74 290.88,2787.28 206,2635.4 C146.185,2528.4 81.36,2466.08 0.05,2439.52 L0.05,2451.6 C81.48,2479.52 144.105,2545.19 204.071,2655.97" id="Fill-52" fill="#C4C5C1" mask="url(#mask-2)"></path>
            <path d="M3487.66,12.33 C3611.06,26.671 3732.26,29.171 3849.94,0.04 L3793.09,0.04 C3691.53,16.95 3588.14,12.32 3482.74,0.04 L3387.84,0.04 C3419.04,3.95 3452.03,8.19 3487.66,12.33" id="Fill-53" fill="#C4C5C1" mask="url(#mask-2)"></path>
            <path d="M4583.95,0.04 L4322.91,0.04 C4438.56,12.83 4495.469,15.96 4583.95,0.04" id="Fill-54" fill="#C4C5C1" mask="url(#mask-2)"></path>
            <path d="M2408.24,10.74 C2547.51,47.06 2676.35,70.74 2813.14,12.17 C2822.93,7.98 2832.14,3.94 2841.03,0.04 L2812.56,0.04 C2805.91,2.83 2799.03,5.641 2791.84,8.46 C2667.66,57.33 2538.16,32.58 2413.05,0.04 L2369.36,0.04 C2382.34,3.78 2395.3,7.347 2408.24,10.74" id="Fill-55" fill="#C4C5C1" mask="url(#mask-2)"></path>
            <path d="M593.357,26.58 C726.435,96.1 776.753,183.421 859.133,302.351 C927.037,400.351 986.872,439.99 1106.38,390.451 C1281.34,317.941 1337.33,112.121 1502.57,0.041 L1482.44,0.041 C1326.31,114.831 1267.98,310.931 1101.93,379.771 C987.702,427.121 933.375,389.251 868.631,295.771 C784.961,174.981 733.823,86.921 598.696,16.321 C587.698,10.581 576.701,5.151 565.704,0.03 L537.37,0.03 C556.033,7.977 574.695,16.827 593.357,26.58" id="Fill-56" fill="#C4C5C1" mask="url(#mask-2)"></path>
            <path d="M582.66,86.33 C711.918,162.67 755.128,283.041 846.026,388.861 C938.574,496.591 1035.65,499.861 1155.88,437.951 C1353.34,336.22 1429.47,77.04 1658.62,0.04 L1626.39,0.04 C1413.84,88.82 1339.22,330.49 1150.68,427.621 C1035.16,487.131 943.783,484.921 854.804,381.341 C762.346,273.711 720.836,154.5 588.408,76.34 C526.343,39.681 465.198,14.34 403.023,0.08 L331.04,0.08 C416.47,8.25 498.59,36.68 582.66,86.33" id="Fill-57" fill="#C4C5C1" mask="url(#mask-2)"></path>
            <path d="M797.068,97.45 C852.734,154.571 890.715,216.821 941.593,272.25 C1040.57,380.061 1130.04,311.061 1208.53,223.611 C1260.35,165.891 1328.31,66.51 1395.48,0.04 L1378.67,0.04 C1361.22,18.09 1343.23,39.151 1322.68,64.371 C1263.85,136.781 1147.72,311.051 1048.83,315.831 C973.565,319.46 915.909,222.181 874.929,170.041 C819.772,99.871 762.546,43.901 698.482,0.04 L676.337,0.04 C720.26,27.663 760.782,60.358 797.068,97.45" id="Fill-58" fill="#C4C5C1" mask="url(#mask-2)"></path>
            <path d="M4123.08,2846.76 C4029.01,2894.94 3945.06,2953.34 3855.75,3000.04 L3880.17,3000.04 C3978.94,2946.25 4071.89,2880.3 4179.71,2832.39 C4379.66,2743.52 4537.63,2770.65 4689.88,2863 L4689.88,2848.6 C4510.89,2742.88 4337.54,2736.91 4123.08,2846.76" id="Fill-59" fill="#C4C5C1" mask="url(#mask-2)"></path>
            <path d="M4020.37,2783.27 C3946.589,2813.68 3873.27,2854.91 3800.01,2880.84 C3700.43,2916.1 3621.06,2905.2 3522.26,2949.14 C3478.16,2968.75 3440.99,2985.5 3404.87,3000.04 L3437.16,3000.04 C3449.46,2995 3461.48,2989.85 3473.22,2984.58 C3568.85,2941.67 3577.98,2935.35 3687.73,2919.69 C3825.3,2900.04 3915.93,2837.43 4041.53,2787.15 C4258.74,2700.21 4474.42,2658.98 4689.88,2750.93 L4689.88,2738.39 C4467.11,2645.28 4243.34,2691.36 4020.37,2783.27" id="Fill-60" fill="#C4C5C1" mask="url(#mask-2)"></path>
            <path d="M4270.799,2750.45 C4108.48,2787.87 3990.15,2855.32 3846.21,2933.85 C3773.61,2973.46 3754.06,2985.17 3670.26,2993.32 C3652.83,2995.01 3635.41,2997.32 3618.03,3000.04 L3710.61,3000.04 C3765.75,2991.46 3790.59,2977.37 3851.79,2944.04 C3994.65,2866.1 4112.339,2798.9 4273.43,2761.76 C4434.52,2724.62 4562.36,2737.76 4689.919,2804.36 L4689.919,2791.36 C4561.64,2725.82 4432.43,2713.17 4270.799,2750.45" id="Fill-61" fill="#C4C5C1" mask="url(#mask-2)"></path>
            <path d="M4033,2718.71 C3959.49,2743.57 3883.75,2779.54 3811.05,2799.13 C3676.08,2835.49 3626.26,2811.68 3495.34,2893.23 C3426.53,2936.12 3357.14,2973.78 3285.71,3000.04 L3317.53,3000.04 C3379.92,2974.45 3440.91,2940.79 3501.49,2903.04 C3630.06,2822.94 3680.7,2846.23 3814.08,2810.28 C3887.19,2790.58 3962.87,2754.63 4036.7,2729.66 C4257.75,2654.9 4469.81,2620.85 4689.88,2702.75 L4689.88,2690.42 C4468.65,2609.45 4255.36,2643.51 4033,2718.71" id="Fill-62" fill="#C4C5C1" mask="url(#mask-2)"></path>
            <path d="M4286.38,2984.88 C4264.2,2988.52 4242.28,2993.58 4220.75,3000.04 L4266.4,3000.04 C4328.39,2986.52 4394.72,2985.1 4468.22,3000.04 L4515.47,3000.04 C4442.87,2976.42 4363,2972.29 4286.38,2984.88" id="Fill-63" fill="#C4C5C1" mask="url(#mask-2)"></path>
            <path d="M4652.38,2881.29 C4384.36,2729.29 4171.74,2857.8 3950.84,3000.04 L3972.17,3000.04 C4183.78,2864.1 4389.64,2745.52 4646.67,2891.35 C4662.02,2900.06 4676.339,2909.11 4689.88,2918.48 L4689.88,2904.48 C4678.04,2896.53 4665.6,2888.79 4652.38,2881.29" id="Fill-64" fill="#C4C5C1" mask="url(#mask-2)"></path>
            <path d="M4118.65,3000.04 L4146.41,3000.04 C4312.81,2926.81 4484.7,2914.76 4623.13,3000.04 L4644.48,3000.04 C4494.13,2897.89 4301.969,2913.04 4118.65,3000.04" id="Fill-65" fill="#C4C5C1" mask="url(#mask-2)"></path>
            <path d="M4660.2,2634.23 C4356.45,2549.32 4197.49,2613.56 3909.96,2699.36 C3819.44,2726.36 3772.87,2730.01 3680.8,2741.14 C3620.33,2748.45 3598.17,2745.57 3545.53,2783.3 C3455,2848.18 3404.38,2904.53 3294.41,2950.14 C3192.43,2992.45 3038.86,3009.23 2936.3,2966.28 C2823.2,2918.9 2811.43,2865.28 2787.72,2756.9 C2753.84,2602.23 2667.15,2502.29 2550.89,2401.17 C2449.08,2312.59 2342.54,2237.17 2234.44,2366.83 C2182.38,2429.35 2135.33,2506.5 2054,2534.04 C1979.14,2559.35 1839.62,2540.41 1759.37,2533.39 C1605.89,2519.99 1506.73,2501.29 1371.65,2590.84 C1180.57,2717.49 1013.26,2930.19 788.47,3000.04 L823.941,3000.04 C1026.89,2923.41 1184.04,2736.3 1358.81,2613.61 C1503.41,2512.12 1589.47,2530.13 1758.3,2544.89 C1841.07,2552.12 1980.24,2571.14 2057.64,2544.97 C2142.06,2516.41 2189.85,2438.4 2243.33,2374.23 C2337.99,2260.64 2426.97,2313.45 2521.71,2391.57 C2636.8,2486.47 2738.14,2596.27 2773.21,2745.3 C2797.65,2849.14 2803.2,2919.3 2915.28,2969.78 C2956.75,2988.48 2990.38,2996.61 3028.93,3000.04 L3142.36,3000.04 C3289.59,2986.95 3391.97,2919.04 3513.72,2822.28 C3543.89,2798.28 3577.11,2769.22 3615.7,2761.28 C3652.45,2753.68 3715.17,2748.91 3753.84,2744.28 C3880.14,2729.28 3986.03,2685.07 4107.67,2651.55 C4328.02,2590.81 4474.44,2589.96 4689.82,2655.15 L4689.82,2642.79 C4680.15,2639.92 4670.27,2637.04 4660.2,2634.23" id="Fill-66" fill="#C4C5C1" mask="url(#mask-2)"></path>
            <path d="M4675.25,2952.04 C4454.91,2803.24 4238.18,2874.04 4030.73,3000.04 L4053.21,3000.04 C4251.58,2882.75 4458.34,2819.49 4668.78,2961.6 C4676.17,2966.6 4683.18,2971.6 4689.88,2976.6 L4689.88,2962.25 C4685.15,2958.83 4680.29,2955.42 4675.25,2952.04" id="Fill-67" fill="#C4C5C1" mask="url(#mask-2)"></path>
            <path d="M2467.91,2670.13 C2380.43,2584.96 2334.94,2613.69 2265.52,2690.42 C2177.86,2787.37 2114.63,2823.42 1982.07,2776.11 C1818.77,2717.83 1677.15,2690.69 1526.18,2797.98 C1444.98,2855.69 1371.55,2936.14 1288.49,3000.04 L1307.29,3000.04 C1379.96,2942.44 1441.76,2877.12 1513.58,2821.75 C1668.46,2702.32 1805.38,2725.35 1977.99,2786.95 C2115.24,2835.95 2183.08,2798.77 2274.06,2698.16 C2339.05,2626.32 2377.54,2598.33 2459.79,2678.41 C2549,2765.26 2575.12,2897.05 2633.75,3000.04 L2647.08,3000.04 C2585.96,2896.86 2560.67,2760.5 2467.91,2670.13" id="Fill-68" fill="#C4C5C1" mask="url(#mask-2)"></path>
            <path d="M2653.4,2896.6 C2607.56,2790.13 2565.17,2594.92 2459.45,2538.97 C2370.9,2492.08 2314.81,2533.71 2254.19,2596.67 C2168.96,2685.18 2107.66,2733.93 1975.25,2712.15 C1926.27,2704.08 1877.17,2690.6 1826.29,2682.49 C1684.77,2659.93 1579.76,2659.76 1464.96,2758.27 C1399.16,2814.78 1341.18,2878.52 1272.59,2935.76 C1244.6,2959.15 1218.42,2981.27 1189.47,3000.04 L1209.61,3000.04 L1209.75,2999.94 C1299.67,2933.28 1360.42,2871.25 1440.61,2795.94 C1556.68,2686.94 1634.26,2669.02 1789.87,2688.94 C1849.91,2696.62 1900.98,2709.46 1959.46,2721.05 C2091.43,2747.21 2163.52,2707.76 2251.62,2616.16 C2311.43,2553.96 2363.06,2501.01 2454.08,2549.16 C2550.89,2600.46 2593.87,2780.34 2633.2,2878.04 C2651.45,2923.46 2670.87,2964.97 2695.49,3000.04 L2709.75,3000.04 C2687.97,2970.54 2670.19,2935.6 2653.4,2896.6" id="Fill-69" fill="#C4C5C1" mask="url(#mask-2)"></path>
            <path d="M2477.9,2939.12 C2435.13,2883.79 2394.4,2837.31 2330.41,2889.06 C2291.42,2920.57 2268.7,2950.8 2223.68,2980.74 C2208.13,2991.09 2193.84,2997.23 2180.27,3000.04 L2214.62,3000.04 L2216.32,2999.11 C2267.72,2969.79 2294.92,2932.65 2337.77,2897.98 C2389.34,2856.24 2419.35,2886.23 2456.87,2931.31 C2474.96,2953.06 2491.4,2976.31 2507.4,3000.04 L2521.25,3000.04 C2507.34,2979.42 2493.14,2958.89 2477.9,2939.12" id="Fill-70" fill="#C4C5C1" mask="url(#mask-2)"></path>
            <path d="M2443.82,2764.04 C2352.17,2672.15 2283.43,2782.04 2227.28,2842.66 C2174.06,2900.15 2139.67,2921.35 2068,2881.47 C1988.72,2837.35 1955.25,2810.01 1859.26,2793.95 C1696.98,2766.83 1589.43,2805.64 1468.15,2916.73 C1435.43,2946.73 1406.78,2974.57 1379.38,3000.04 L1396.68,3000.04 C1415.68,2982.28 1435.83,2962.98 1458.07,2941.96 C1583.45,2823.46 1685.28,2776.61 1857.37,2805.4 C1951.61,2821.16 1984.41,2848.24 2062.27,2891.56 C2139.25,2934.4 2179.02,2911.79 2235.74,2850.56 C2296.18,2785.29 2358.79,2679.68 2448.15,2786.13 C2491.9,2838.19 2535.27,2929.19 2577.76,3000.04 L2591.56,3000.04 C2544.07,2921.65 2489.9,2810.24 2443.82,2764.04" id="Fill-71" fill="#C4C5C1" mask="url(#mask-2)"></path>
            <path d="M2694.85,2862.38 C2638.72,2704.8 2621.04,2555.65 2460.79,2464.31 C2341.34,2396.22 2315.64,2445.22 2241.96,2528.38 C2151.5,2630.38 2049.65,2652.02 1918.94,2641.56 C1826.9,2634.19 1741.54,2623.1 1648,2625.38 C1514.57,2628.62 1465.15,2651.04 1375.52,2745.82 C1276.44,2850.62 1169.53,2942.54 1035.25,2999.44 L1033.83,3000.04 L1060.34,3000.04 C1132.44,2967.04 1189.21,2931.88 1268.96,2865.11 C1323.12,2819.75 1361.43,2775.17 1410.18,2726.46 C1492.84,2643.87 1568.31,2635.82 1680.94,2636.7 C1762.81,2637.33 1837.49,2646.7 1917.97,2653.09 C2052.37,2663.84 2157.59,2640.92 2250.58,2536.09 C2326.22,2450.77 2347.8,2407.02 2468.03,2482.15 C2623,2578.95 2632,2735.2 2692.28,2888.66 C2711.56,2937.66 2732.52,2973.49 2757.27,3000.09 L2774.09,3000.09 C2739.98,2967.62 2716.35,2922.68 2694.85,2862.38" id="Fill-72" fill="#C4C5C1" mask="url(#mask-2)"></path>
            <path d="M2727.64,2775.98 C2699.28,2659.43 2646.6,2543.6 2556.36,2461.61 C2472.19,2385.12 2350.19,2313.98 2254.95,2417.74 C2150.77,2531.23 2132.98,2605.8 1955.55,2596.83 C1839.74,2590.98 1647.7,2555.17 1539.51,2578.45 C1418.88,2604.39 1269.34,2757.88 1172.22,2838.2 C1095.29,2901.76 1013.07,2958.61 924.957,3000.04 L951.271,3000.04 C1032.25,2959.34 1108.13,2906.15 1179.55,2847.11 C1274.27,2768.81 1424.8,2614.96 1541.96,2589.75 C1647.72,2566.99 1841.12,2602.63 1954.97,2608.38 C2137.62,2617.61 2157.16,2541.38 2263.58,2425.38 C2350.42,2330.77 2459.31,2393.15 2538.52,2461.26 C2632.91,2542.39 2687.48,2659.79 2716.37,2778.66 C2744.02,2892.16 2764.83,2955.25 2856.67,3000.04 L2885.21,3000.04 C2776.38,2956.04 2756.62,2895.04 2727.64,2775.98" id="Fill-73" fill="#C4C5C1" mask="url(#mask-2)"></path>
            <path d="M1580.82,2981.94 C1571.33,2987.83 1562.03,2993.87 1552.94,3000.04 L1573.87,3000.04 C1578.18,2997.25 1582.51,2994.49 1586.87,2991.76 C1733,2901.04 1850.21,2929.16 1971.02,3000.04 L1993.32,3000.04 C1862.75,2919.88 1737.79,2884.47 1580.82,2981.94" id="Fill-74" fill="#C4C5C1" mask="url(#mask-2)"></path>
            <path d="M2061.38,2957.61 C1956.65,2887.89 1875.57,2828.54 1741.08,2850.04 C1638.36,2866.44 1543.24,2929.93 1450.89,3000.04 L1469.97,3000.04 C1500.48,2976.87 1531.21,2954.69 1562.6,2934.91 C1710.86,2841.47 1837.45,2826.65 1990.33,2923.81 C2027.12,2947.19 2067.92,2981.6 2110.51,3000.04 L2144.5,3000.04 C2117.53,2994.6 2091.6,2977.71 2061.38,2957.61" id="Fill-75" fill="#C4C5C1" mask="url(#mask-2)"></path>
            <path d="M1828.94,3000.04 C1805.28,2997.42 1781.4,2997.42 1757.75,3000.04 L1828.94,3000.04" id="Fill-76" fill="#C4C5C1" mask="url(#mask-2)"></path>
        </g>
    </g>
</svg>